<svg width="20" height="20" viewBox="0 0 20 20" fill="none" xmlns="http://www.w3.org/2000/svg">
<path d="M2.15854 3.1375C1.94537 3.1375 1.74146 3.17408 1.551 3.242C1.70886 2.60113 2.07087 2.03258 2.57965 1.62646C3.08844 1.22034 3.7149 0.999877 4.35976 1H15.25C16.0182 1 16.7549 1.31278 17.298 1.86953C17.8412 2.42628 18.1463 3.18139 18.1463 3.96875V9.5709C17.7849 9.3334 17.3965 9.13437 16.9878 8.98V3.96875C16.9878 3.49633 16.8047 3.04327 16.4788 2.70922C16.1529 2.37517 15.7109 2.1875 15.25 2.1875H4.35976C4.02374 2.18736 3.69489 2.28707 3.41303 2.47457C3.13116 2.66206 2.90837 2.92929 2.77164 3.2439C2.57457 3.1733 2.36729 3.13733 2.15854 3.1375ZM9.24878 16.9125C9.39939 17.3314 9.59356 17.7295 9.82527 18.1H4.35976C3.5916 18.1 2.8549 17.7872 2.31173 17.2305C1.76857 16.6737 1.46342 15.9186 1.46342 15.1312V6.79975C1.83144 6.95237 2.23755 6.97984 2.62195 6.87812V15.1312C2.62195 15.6037 2.80504 16.0567 3.13094 16.3908C3.45685 16.7248 3.89886 16.9125 4.35976 16.9125H9.24878ZM9.68439 11.6875C9.92711 11.2572 10.2196 10.8584 10.5556 10.5H6.67683C6.5232 10.5 6.37586 10.5626 6.26722 10.6739C6.15859 10.7853 6.09756 10.9363 6.09756 11.0938C6.09756 11.2512 6.15859 11.4022 6.26722 11.5136C6.37586 11.6249 6.5232 11.6875 6.67683 11.6875H9.68439ZM2.15854 3.85C2.00633 3.84975 1.85557 3.88029 1.7149 3.93988C1.57423 3.99947 1.44641 4.08693 1.33878 4.19725C1.23116 4.30757 1.14583 4.43858 1.08769 4.58277C1.02956 4.72695 0.999757 4.88148 1 5.0375C0.999757 5.19351 1.02956 5.34805 1.08769 5.49223C1.14583 5.63642 1.23116 5.76743 1.33878 5.87775C1.44641 5.98807 1.57423 6.07553 1.7149 6.13512C1.85557 6.19471 2.00633 6.22525 2.15854 6.225C2.4658 6.225 2.76048 6.09989 2.97775 5.87719C3.19501 5.65449 3.31707 5.35244 3.31707 5.0375C3.31707 4.72256 3.19501 4.42051 2.97775 4.19781C2.76048 3.97511 2.4658 3.85 2.15854 3.85ZM6.67683 7.175C6.60076 7.175 6.52543 7.19036 6.45515 7.2202C6.38487 7.25003 6.32101 7.29377 6.26722 7.3489C6.21343 7.40404 6.17077 7.46949 6.14166 7.54153C6.11254 7.61357 6.09756 7.69078 6.09756 7.76875C6.09756 7.84672 6.11254 7.92393 6.14166 7.99597C6.17077 8.06801 6.21343 8.13346 6.26722 8.18859C6.32101 8.24373 6.38487 8.28747 6.45515 8.3173C6.52543 8.34714 6.60076 8.3625 6.67683 8.3625H12.9329C13.009 8.3625 13.0843 8.34714 13.1546 8.3173C13.2249 8.28747 13.2887 8.24373 13.3425 8.18859C13.3963 8.13346 13.439 8.06801 13.4681 7.99597C13.4972 7.92393 13.5122 7.84672 13.5122 7.76875C13.5122 7.69078 13.4972 7.61357 13.4681 7.54153C13.439 7.46949 13.3963 7.40404 13.3425 7.3489C13.2887 7.29377 13.2249 7.25003 13.1546 7.2202C13.0843 7.19036 13.009 7.175 12.9329 7.175H6.67683Z" fill="white"/>
<circle cx="15" cy="15" r="5" fill="#DE4A2C"/>
<path d="M15.3214 11.4968C15.4067 11.582 15.4545 11.6976 15.4545 11.8182V14.5455H18.1818C18.3024 14.5455 18.418 14.5933 18.5032 14.6786C18.5885 14.7638 18.6364 14.8794 18.6364 15C18.6364 15.1206 18.5885 15.2362 18.5032 15.3214C18.418 15.4067 18.3024 15.4545 18.1818 15.4545H15.4545V18.1818C15.4545 18.3024 15.4067 18.418 15.3214 18.5032C15.2362 18.5885 15.1206 18.6364 15 18.6364C14.8794 18.6364 14.7638 18.5885 14.6786 18.5032C14.5933 18.418 14.5455 18.3024 14.5455 18.1818V15.4545H11.8182C11.6976 15.4545 11.582 15.4067 11.4968 15.3214C11.4115 15.2362 11.3636 15.1206 11.3636 15C11.3636 14.8794 11.4115 14.7638 11.4968 14.6786C11.582 14.5933 11.6976 14.5455 11.8182 14.5455H14.5455V11.8182C14.5455 11.6976 14.5933 11.582 14.6786 11.4968C14.7638 11.4115 14.8794 11.3636 15 11.3636C15.1206 11.3636 15.2362 11.4115 15.3214 11.4968Z" fill="white"/>
</svg>
