<svg width="20" height="20" viewBox="0 0 20 20" fill="none" xmlns="http://www.w3.org/2000/svg">
<path d="M13.2727 6.72727H17.7727L13.2727 2.22727V6.72727ZM5.90909 1H14.0909L19 5.90909V14.0909C19 14.5249 18.8276 14.9411 18.5207 15.248C18.2138 15.5549 17.7976 15.7273 17.3636 15.7273H5.90909C5.4751 15.7273 5.05888 15.5549 4.75201 15.248C4.44513 14.9411 4.27273 14.5249 4.27273 14.0909V2.63636C4.27273 2.20237 4.44513 1.78616 4.75201 1.47928C5.05888 1.1724 5.4751 1 5.90909 1ZM2.63636 4.27273V17.3636H17.3636V19H2.63636C2.20237 19 1.78616 18.8276 1.47928 18.5207C1.1724 18.2138 1 17.7976 1 17.3636V4.27273H2.63636Z" fill="white"/>
</svg>
