<svg width="20" height="20" viewBox="0 0 20 20" fill="none" xmlns="http://www.w3.org/2000/svg">
<path d="M18.625 15.075L17.25 14.3875V12.75C17.2484 11.7761 16.9025 10.8341 16.2734 10.0905C15.6444 9.347 14.7727 8.84982 13.8125 8.68688V7.25H12.4375V8.68688C11.4773 8.84982 10.6056 9.347 9.97657 10.0905C9.34752 10.8341 9.00162 11.7761 9 12.75V14.3875L7.625 15.075V18.25H11.75V19.625H14.5V18.25H18.625V15.075ZM17.25 16.875H9V15.925L10.375 15.2375V12.75C10.375 12.0207 10.6647 11.3212 11.1805 10.8055C11.6962 10.2897 12.3957 10 13.125 10C13.8543 10 14.5538 10.2897 15.0695 10.8055C15.5853 11.3212 15.875 12.0207 15.875 12.75V15.2375L17.25 15.925V16.875Z" fill="#DE4A2C"/>
<path d="M17.25 3.125C17.25 2.76033 17.1051 2.41059 16.8473 2.15273C16.5894 1.89487 16.2397 1.75 15.875 1.75H13.125V0.375H11.75V1.75H6.25V0.375H4.875V1.75H2.125C1.76033 1.75 1.41059 1.89487 1.15273 2.15273C0.894866 2.41059 0.75 2.76033 0.75 3.125V16.875C0.75 17.2397 0.894866 17.5894 1.15273 17.8473C1.41059 18.1051 1.76033 18.25 2.125 18.25H4.875V16.875H2.125V3.125H4.875V4.5H6.25V3.125H11.75V4.5H13.125V3.125H15.875V7.25H17.25V3.125Z" fill="white"/>
</svg>
