<svg width="17" height="17" viewBox="0 0 17 17" fill="none" xmlns="http://www.w3.org/2000/svg">
<path d="M13.4931 0.720685L2.44763 4.40249C2.01239 4.54846 1.63276 4.82511 1.36049 5.19472C1.08823 5.56433 0.936583 6.00892 0.92623 6.46787C0.915878 6.92682 1.04732 7.3778 1.30265 7.75931C1.55797 8.14082 1.92474 8.43431 2.35296 8.59975L6.43976 10.1619C6.53669 10.2015 6.62476 10.2601 6.69881 10.3341C6.77286 10.4082 6.83142 10.4963 6.87106 10.5932L8.4332 14.68C8.56649 15.0271 8.78442 15.3355 9.06718 15.577C9.34994 15.8185 9.68857 15.9855 10.0523 16.0628C10.416 16.1402 10.7933 16.1254 11.1499 16.0199C11.5064 15.9143 11.831 15.7213 12.094 15.4584C12.3378 15.2097 12.5229 14.9096 12.6357 14.5801L16.3175 3.53464C16.4473 3.14205 16.4655 2.72111 16.37 2.31879C16.2745 1.91648 16.0691 1.54861 15.7767 1.25622C15.4843 0.963838 15.1165 0.758441 14.7142 0.662949C14.3118 0.567457 13.8909 0.585624 13.4983 0.715425L13.4931 0.720685ZM14.9027 3.06652L11.2209 14.1119C11.1706 14.2551 11.0778 14.3794 10.9548 14.4683C10.8319 14.5571 10.6847 14.6063 10.5331 14.6092C10.3814 14.612 10.2325 14.5684 10.1063 14.4843C9.9801 14.4001 9.88266 14.2794 9.82703 14.1382L8.25963 10.0567C8.23819 10.0027 8.2136 9.95002 8.18599 9.8989L11.8099 6.27495C11.9494 6.13546 12.0278 5.94626 12.0278 5.74898C12.0278 5.5517 11.9494 5.36251 11.8099 5.22301C11.6704 5.08351 11.4812 5.00514 11.284 5.00514C11.0867 5.00514 10.8975 5.08351 10.758 5.22301L7.13405 8.84696C7.08293 8.81935 7.03025 8.79477 6.97626 8.77332L2.89471 7.20592C2.75359 7.1503 2.63284 7.05285 2.54867 6.92665C2.4645 6.80046 2.42092 6.65154 2.42379 6.49988C2.42665 6.34821 2.47581 6.20105 2.56468 6.07812C2.65355 5.95518 2.77789 5.86236 2.92101 5.8121L13.9664 2.13029C14.0967 2.08827 14.2361 2.08303 14.3692 2.11514C14.5023 2.14724 14.6239 2.21545 14.7207 2.31226C14.8175 2.40906 14.8857 2.5307 14.9178 2.66378C14.9499 2.79687 14.9447 2.93623 14.9027 3.06652Z" fill="white"/>
</svg>
