<svg width="20" height="20" viewBox="0 0 20 20" fill="none" xmlns="http://www.w3.org/2000/svg">
<path d="M9.83377 2.63636C8.40428 2.63636 7.00689 3.06823 5.81831 3.87736C4.62973 4.68649 3.70335 5.83653 3.15631 7.18206C2.60927 8.52759 2.46614 10.0082 2.74502 11.4366C3.0239 12.865 3.71226 14.1771 4.72306 15.2069C5.73386 16.2367 7.0217 16.938 8.42373 17.2221C9.82575 17.5063 11.279 17.3604 12.5997 16.8031C13.9203 16.2458 15.0491 15.302 15.8433 14.091C16.6375 12.8801 17.0614 11.4564 17.0614 10V9.18182H18.6675V10C18.6675 14.9705 14.7124 19 9.83377 19C4.95512 19 1 14.9705 1 10C1 5.02955 4.95512 1 9.83377 1C11.0368 1 12.1852 1.24545 13.2324 1.69055L13.9736 2.00555L13.3552 3.51591L12.614 3.20091C11.7329 2.82759 10.788 2.63572 9.83377 2.63636ZM19 3.86364L9.83377 13.2024L5.08441 8.36364L6.21995 7.20673L9.83377 10.8885L17.8645 2.70673L19 3.86364Z" fill="white"/>
</svg>
