<svg width="32" height="32" viewBox="0 0 32 32" fill="none" xmlns="http://www.w3.org/2000/svg">
<circle cx="16" cy="16" r="16" fill="#CACACA"/>
<path d="M7.49844 17.4279C7.65252 17.582 7.86148 17.6685 8.07938 17.6685H14.1042C14.3221 17.6685 14.531 17.582 14.6851 17.4279C14.8392 17.2738 14.9257 17.0648 14.9257 16.847C14.9257 16.6291 14.8392 16.4201 14.6851 16.266C14.531 16.1119 14.3221 16.0254 14.1042 16.0254H8.07938C7.86148 16.0254 7.65252 16.1119 7.49844 16.266C7.34437 16.4201 7.25781 16.6291 7.25781 16.847C7.25781 17.0648 7.34437 17.2738 7.49844 17.4279Z" fill="black"/>
<path d="M8.07938 21.8111C7.86148 21.8111 7.65252 21.7245 7.49844 21.5705C7.34437 21.4164 7.25781 21.2074 7.25781 20.9895C7.25781 20.7716 7.34437 20.5627 7.49844 20.4086C7.65252 20.2545 7.86148 20.168 8.07938 20.168H17.1769C17.3948 20.168 17.6037 20.2545 17.7578 20.4086C17.9119 20.5627 17.9984 20.7716 17.9984 20.9895C17.9984 21.2074 17.9119 21.4164 17.7578 21.5705C17.6037 21.7245 17.3948 21.8111 17.1769 21.8111H8.07938Z" fill="black"/>
<path d="M7.49844 13.2834C7.65252 13.4374 7.86148 13.524 8.07938 13.524H11.9133C12.1312 13.524 12.3402 13.4374 12.4943 13.2834C12.6483 13.1293 12.7349 12.9203 12.7349 12.7024C12.7349 12.4845 12.6483 12.2756 12.4943 12.1215C12.3402 11.9674 12.1312 11.8809 11.9133 11.8809H8.07938C7.86148 11.8809 7.65252 11.9674 7.49844 12.1215C7.34437 12.2756 7.25781 12.4845 7.25781 12.7024C7.25781 12.9203 7.34437 13.1293 7.49844 13.2834Z" fill="black"/>
<path d="M21.2569 22.9991C21.411 22.845 21.4976 22.636 21.4976 22.4181V11.8035L23.9294 14.2354C24.0851 14.3805 24.2911 14.4595 24.504 14.4557C24.7168 14.452 24.9199 14.3658 25.0704 14.2152C25.2209 14.0647 25.3072 13.8616 25.3109 13.6488C25.3147 13.436 25.2357 13.23 25.0905 13.0742L21.2566 9.24027C21.1025 9.08642 20.8937 9 20.676 9C20.4583 9 20.2495 9.08642 20.0954 9.24027L16.2615 13.0742C16.1808 13.1494 16.116 13.2401 16.0711 13.3409C16.0262 13.4417 16.0021 13.5505 16.0001 13.6608C15.9982 13.7711 16.0185 13.8807 16.0598 13.983C16.1011 14.0853 16.1626 14.1782 16.2406 14.2562C16.3186 14.3342 16.4116 14.3957 16.5139 14.4371C16.6162 14.4784 16.7257 14.4987 16.8361 14.4967C16.9464 14.4948 17.0552 14.4706 17.1559 14.4257C17.2567 14.3808 17.3474 14.3161 17.4226 14.2354L19.8545 11.8035V22.4181C19.8545 22.636 19.941 22.845 20.0951 22.9991C20.2492 23.1531 20.4581 23.2397 20.676 23.2397C20.8939 23.2397 21.1029 23.1531 21.2569 22.9991Z" fill="black"/>
</svg>
