<svg width="17" height="18" viewBox="0 0 17 18" fill="none" xmlns="http://www.w3.org/2000/svg">
<path d="M6.69617 8.37086C9.00772 8.37086 10.8816 6.49698 10.8816 4.18543C10.8816 1.87388 9.00772 0 6.69617 0C4.38462 0 2.51074 1.87388 2.51074 4.18543C2.51074 6.49698 4.38462 8.37086 6.69617 8.37086Z" fill="white"/>
<path d="M13.0835 12.6649L12.1461 13.6107L11.8197 13.2927C11.3509 12.8157 10.7147 12.5562 10.045 12.5562C9.37526 12.5562 8.74745 12.8157 8.27024 13.2927C7.32445 14.2385 7.29091 15.7623 8.18664 16.7416H2.51124C1.13015 16.7416 0 15.6114 0 14.2304C0 11.9202 1.87507 10.0449 4.18543 10.0449H9.20792C10.9659 10.045 12.4724 11.1248 13.0835 12.6649Z" fill="white"/>
<path d="M12.1433 18.0001C11.9213 18.0001 11.7084 17.9119 11.5514 17.7549L9.45422 15.6577C9.12724 15.3307 9.12724 14.8008 9.45422 14.4738C9.78121 14.147 10.3109 14.147 10.6379 14.4738L12.1424 15.9784L15.3109 12.8026C15.6371 12.4754 16.1676 12.4744 16.4946 12.8013C16.822 13.1277 16.8228 13.6577 16.4963 13.985L12.7359 17.7542C12.579 17.9115 12.366 18 12.1437 18.0001H12.1433Z" fill="#DE4A2C"/>
</svg>
