<svg xmlns="http://www.w3.org/2000/svg" width="20" height="20" viewBox="0 0 20 20" fill="none">
  <path d="M10.1184 1C10.3257 1 10.5245 1.08128 10.6711 1.22595C10.8177 1.37062 10.9 1.56683 10.9 1.77143C10.9 1.97602 10.8177 2.17224 10.6711 2.31691C10.5245 2.46158 10.3257 2.54286 10.1184 2.54286C8.11464 2.54286 6.19293 3.32852 4.77604 4.727C3.35916 6.12549 2.56316 8.02224 2.56316 10C2.56316 11.9778 3.35916 13.8745 4.77604 15.273C6.19293 16.6715 8.11464 17.4571 10.1184 17.4571C10.3257 17.4571 10.5245 17.5384 10.6711 17.6831C10.8177 17.8278 10.9 18.024 10.9 18.2286C10.9 18.4332 10.8177 18.6294 10.6711 18.7741C10.5245 18.9187 10.3257 19 10.1184 19C7.70007 19 5.38076 18.0518 3.67072 16.364C1.96069 14.6761 1 12.3869 1 10C1 7.61305 1.96069 5.32387 3.67072 3.63604C5.38076 1.94821 7.70007 1 10.1184 1Z" fill="white"/>
  <path d="M14.6458 7.76259C14.511 7.60904 14.4376 7.40595 14.4411 7.1961C14.4446 6.98626 14.5247 6.78604 14.6645 6.63764C14.8043 6.48923 14.9929 6.40422 15.1906 6.40052C15.3883 6.39681 15.5796 6.47471 15.7243 6.61779L18.7766 9.85779C18.9195 10.0097 18.9998 10.2155 18.9998 10.4302C18.9998 10.6448 18.9195 10.8507 18.7766 11.0026L15.7243 14.2426C15.6544 14.3222 15.5702 14.386 15.4766 14.4303C15.383 14.4745 15.2819 14.4983 15.1795 14.5003C15.077 14.5022 14.9752 14.4822 14.8802 14.4414C14.7852 14.4007 14.6989 14.3401 14.6264 14.2631C14.554 14.1862 14.4968 14.0946 14.4585 13.9938C14.4201 13.8929 14.4012 13.7849 14.403 13.6761C14.4048 13.5673 14.4273 13.4601 14.469 13.3607C14.5107 13.2614 14.5708 13.1719 14.6458 13.0978L16.3958 11.2402H8.06289C7.86051 11.2402 7.66641 11.1548 7.52331 11.0029C7.3802 10.851 7.2998 10.645 7.2998 10.4302C7.2998 10.2154 7.3802 10.0093 7.52331 9.85743C7.66641 9.70553 7.86051 9.62019 8.06289 9.62019H16.3958L14.6458 7.76259Z" fill="white"/>
</svg>