<svg width="18" height="18" viewBox="0 0 18 18" fill="none" xmlns="http://www.w3.org/2000/svg">
<path fill-rule="evenodd" clip-rule="evenodd" d="M9 1.8C7.74069 1.79977 6.50333 2.12984 5.41145 2.75726C4.31956 3.38469 3.41134 4.28753 2.77742 5.37566C2.14351 6.46379 1.80607 7.69915 1.79881 8.95845C1.79154 10.2177 2.11469 11.4569 2.73601 12.5523C3.15596 12.0065 3.69579 11.5646 4.31378 11.2608C4.93177 10.9569 5.61136 10.7993 6.3 10.8H11.7C12.3886 10.7993 13.0682 10.9569 13.6862 11.2608C14.3042 11.5646 14.844 12.0065 15.264 12.5523C15.8853 11.4569 16.2085 10.2177 16.2012 8.95845C16.1939 7.69915 15.8565 6.46379 15.2226 5.37566C14.5887 4.28753 13.6804 3.38469 12.5886 2.75726C11.4967 2.12984 10.2593 1.79977 9 1.8ZM16.1487 14.4684C16.2615 14.3214 16.3695 14.1708 16.4727 14.0166C17.4705 12.534 18.0023 10.7871 18 9C18 4.0293 13.9707 0 9 0C4.02931 0 9.2299e-06 4.0293 9.2299e-06 9C-0.00282696 10.9771 0.648044 12.8996 1.85131 14.4684L1.84681 14.4846L2.16631 14.8563C3.0104 15.8432 4.05845 16.6352 5.23821 17.178C6.41797 17.7207 7.70139 18.0011 9 18C9.1944 18 9.3876 17.994 9.5796 17.982C11.2036 17.8796 12.7689 17.3366 14.1075 16.4115C14.7477 15.9699 15.3279 15.4471 15.8337 14.8563L16.1532 14.4846L16.1487 14.4684Z" fill="white"/>
<path d="M7.09062 4.39042C7.59696 3.88407 8.28372 3.59961 8.9998 3.59961C9.71589 3.59961 10.4026 3.88407 10.909 4.39042C11.4153 4.89677 11.6998 5.58352 11.6998 6.29961C11.6998 7.01569 11.4153 7.70245 10.909 8.2088C10.4026 8.71515 9.71589 8.99961 8.9998 8.99961C8.28372 8.99961 7.59696 8.71515 7.09062 8.2088C6.58427 7.70245 6.2998 7.01569 6.2998 6.29961C6.2998 5.58352 6.58427 4.89677 7.09062 4.39042Z" fill="white"/>
</svg>
