<svg width="20" height="20" viewBox="0 0 20 20" fill="none" xmlns="http://www.w3.org/2000/svg">
<path d="M16.6356 10.4611V9.53211L17.7785 8.51208C17.9892 8.32268 18.1274 8.06341 18.1688 7.78009C18.2102 7.49677 18.1521 7.20765 18.0047 6.96382L16.5999 4.53518C16.4955 4.35076 16.3454 4.19759 16.1647 4.09102C15.9839 3.98445 15.7789 3.92824 15.5701 3.92802C15.4407 3.92701 15.312 3.94751 15.1891 3.98873L13.7427 4.48661C13.4933 4.31678 13.2327 4.16463 12.9629 4.03124L12.6593 2.50119C12.6049 2.22166 12.4558 1.97056 12.2381 1.79185C12.0205 1.61313 11.7482 1.5182 11.4688 1.52366H8.68302C8.40366 1.5182 8.13132 1.61313 7.91368 1.79185C7.69603 1.97056 7.54694 2.22166 7.49251 2.50119L7.18893 4.03124C6.91747 4.16521 6.65498 4.31733 6.40319 4.48661L4.98649 3.96445C4.86226 3.93143 4.73361 3.91913 4.60553 3.92802C4.39675 3.92824 4.19171 3.98445 4.01096 4.09102C3.83022 4.19759 3.68012 4.35076 3.57574 4.53518L2.17094 6.96382C2.032 7.20729 1.98037 7.49245 2.02489 7.77047C2.06941 8.0485 2.20732 8.30208 2.41499 8.4878L3.54002 9.53819V10.4671L2.41499 11.4872C2.20145 11.6742 2.05978 11.9323 2.0151 12.2157C1.97042 12.4992 2.02563 12.7896 2.17094 13.0354L3.57574 15.4641C3.68012 15.6485 3.83022 15.8017 4.01096 15.9082C4.19171 16.0148 4.39675 16.071 4.60553 16.0712C4.7349 16.0722 4.86358 16.0517 4.98649 16.0105L6.43296 15.5126C6.68235 15.6825 6.94289 15.8346 7.21274 15.968L7.51632 17.4981C7.57075 17.7776 7.71984 18.0287 7.93749 18.2074C8.15513 18.3861 8.42747 18.4811 8.70683 18.4756H11.5164C11.7958 18.4811 12.0681 18.3861 12.2858 18.2074C12.5034 18.0287 12.6525 17.7776 12.7069 17.4981L13.0105 15.968C13.282 15.834 13.5445 15.6819 13.7962 15.5126L15.2368 16.0105C15.3597 16.0517 15.4883 16.0722 15.6177 16.0712C15.8265 16.071 16.0315 16.0148 16.2123 15.9082C16.393 15.8017 16.5431 15.6485 16.6475 15.4641L18.0047 13.0354C18.1436 12.792 18.1953 12.5068 18.1507 12.2288C18.1062 11.9508 17.9683 11.6972 17.7606 11.5115L16.6356 10.4611ZM15.5701 14.8569L13.5284 14.1526C13.0501 14.5651 12.504 14.8879 11.9152 15.1059L11.4926 17.2856H8.68302L8.26039 15.1301C7.67629 14.906 7.13306 14.5838 6.6532 14.1769L4.60553 14.8569L3.20073 12.4283L4.81982 10.9711C4.70975 10.3426 4.70975 9.69917 4.81982 9.07067L3.20073 7.57098L4.60553 5.14234L6.64725 5.84665C7.12549 5.43413 7.67166 5.11139 8.26039 4.8934L8.68302 2.7137H11.4926L11.9152 4.86912C12.4993 5.09323 13.0426 5.41542 13.5224 5.82236L15.5701 5.14234L16.9749 7.57098L15.3558 9.02817C15.4659 9.65667 15.4659 10.3001 15.3558 10.9286L16.9749 12.4283L15.5701 14.8569Z" fill="white"/>
<path d="M10.0905 13.8519C9.4047 13.8519 8.7343 13.626 8.16408 13.2026C7.59387 12.7793 7.14943 12.1776 6.88699 11.4736C6.62455 10.7696 6.55588 9.99493 6.68967 9.24757C6.82347 8.50022 7.15371 7.81373 7.63864 7.27492C8.12357 6.73611 8.74141 6.36917 9.41403 6.22051C10.0866 6.07186 10.7838 6.14815 11.4174 6.43976C12.051 6.73136 12.5926 7.22517 12.9736 7.85875C13.3546 8.49232 13.5579 9.23721 13.5579 9.9992C13.5626 10.5066 13.476 11.0099 13.3034 11.4796C13.1308 11.9494 12.8756 12.3762 12.5527 12.735C12.2298 13.0938 11.8457 13.3773 11.4229 13.5691C11.0001 13.7609 10.5471 13.8571 10.0905 13.8519ZM10.0905 7.43072C9.78498 7.42282 9.4812 7.48385 9.19752 7.61013C8.91384 7.7364 8.65617 7.92531 8.44008 8.16541C8.22399 8.4055 8.05398 8.69181 7.94032 9.00701C7.82667 9.3222 7.77175 9.65974 7.77886 9.9992C7.77175 10.3387 7.82667 10.6762 7.94032 10.9914C8.05398 11.3066 8.22399 11.5929 8.44008 11.833C8.65617 12.0731 8.91384 12.262 9.19752 12.3883C9.4812 12.5146 9.78498 12.5756 10.0905 12.5677C10.396 12.5756 10.6998 12.5146 10.9835 12.3883C11.2671 12.262 11.5248 12.0731 11.7409 11.833C11.957 11.5929 12.127 11.3066 12.2407 10.9914C12.3543 10.6762 12.4092 10.3387 12.4021 9.9992C12.4092 9.65974 12.3543 9.3222 12.2407 9.00701C12.127 8.69181 11.957 8.4055 11.7409 8.16541C11.5248 7.92531 11.2671 7.7364 10.9835 7.61013C10.6998 7.48385 10.396 7.42282 10.0905 7.43072Z" fill="white"/>
</svg>
