<svg width="20" height="20" viewBox="0 0 20 20" fill="none" xmlns="http://www.w3.org/2000/svg">
<path d="M9.59879 4.11133C7.95924 4.11133 6.61621 5.44564 6.61621 7.09391C6.61621 8.74218 7.95052 10.0765 9.59879 10.0765C11.2471 10.0765 12.5814 8.74218 12.5814 7.09391C12.5814 5.44564 11.2471 4.11133 9.59879 4.11133Z" fill="white"/>
<path d="M15.73 16.8799C15.5643 16.8799 15.3899 16.8101 15.2591 16.6793C15.0062 16.4177 15.0062 16.0078 15.2678 15.7549C16.8289 14.2287 17.6835 12.1793 17.6835 9.99031C17.6835 5.5426 14.0643 1.92338 9.6166 1.92338C8.78811 1.92338 7.97706 2.04548 7.20089 2.28967C6.85205 2.39432 6.48577 2.20246 6.38111 1.86234C6.27646 1.5135 6.46833 1.14722 6.80844 1.04256C7.71543 0.75477 8.6573 0.615234 9.62533 0.615234C14.7969 0.615234 19.0004 4.81875 19.0004 9.99031C19.0004 12.5281 17.9975 14.9089 16.1922 16.688C16.0614 16.8101 15.8957 16.8712 15.7387 16.8712L15.73 16.8799Z" fill="white"/>
<path d="M9.62507 19.3737C4.45352 19.3737 0.25 15.1702 0.25 9.99861C0.25 7.53057 1.20059 5.20206 2.92735 3.4317C3.18025 3.17007 3.59014 3.17007 3.85177 3.42298C4.1134 3.67589 4.1134 4.0945 3.86049 4.34741C2.3692 5.86486 1.55815 7.87069 1.55815 9.99861C1.55815 14.4463 5.17736 18.0655 9.62507 18.0655C10.4536 18.0655 11.2646 17.9434 12.0408 17.6993C12.3896 17.5946 12.7559 17.7865 12.8606 18.1266C12.9652 18.4754 12.7734 18.8417 12.4332 18.9464C11.5262 19.2341 10.5844 19.3737 9.61635 19.3737H9.62507Z" fill="#DE4A2C"/>
<path d="M16.6014 17.6305H14.8572C14.4996 17.6305 14.2031 17.334 14.2031 16.9764V15.2322C14.2031 14.8746 14.4996 14.5781 14.8572 14.5781C15.2148 14.5781 15.5113 14.8746 15.5113 15.2322V16.3223H16.6014C16.959 16.3223 17.2555 16.6188 17.2555 16.9764C17.2555 17.334 16.959 17.6305 16.6014 17.6305Z" fill="white"/>
<path d="M4.39241 5.41954C4.03485 5.41954 3.73834 5.12302 3.73834 4.76546V3.67534H2.64822C2.29065 3.67534 1.99414 3.37882 1.99414 3.02126C1.99414 2.6637 2.29065 2.36719 2.64822 2.36719H4.39241C4.74998 2.36719 5.04649 2.6637 5.04649 3.02126V4.76546C5.04649 5.12302 4.74998 5.41954 4.39241 5.41954Z" fill="#DE4A2C"/>
<path d="M12.3723 9.75586C11.6747 10.4884 10.6892 10.9506 9.59906 10.9506C8.50893 10.9506 7.54962 10.4971 6.84322 9.78202C5.66589 10.5059 4.89844 11.6745 4.89844 12.9826C4.89844 13.4972 5.20367 14.2123 6.63392 14.6396C7.43625 14.8751 8.49149 15.0146 9.62522 15.0146C10.7589 15.0146 14.352 14.8664 14.352 12.9826C14.352 11.6483 13.5671 10.4797 12.3723 9.75586Z" fill="white"/>
</svg>
