<svg width="19" height="20" viewBox="0 0 19 20" fill="none" xmlns="http://www.w3.org/2000/svg">
<path fill-rule="evenodd" clip-rule="evenodd" d="M1.17777 1.17157C-1.13533e-07 2.34315 0 4.22876 0 8V12C0 15.7712 -1.13533e-07 17.6569 1.17777 18.8284C2.35555 20 4.25113 20 8.04233 20H10.0529C13.8441 20 15.7397 20 16.9174 18.8284C18.0952 17.6569 18.0952 15.7712 18.0952 12V8C18.0952 4.22876 18.0952 2.34315 16.9174 1.17157C15.7397 1.13533e-07 13.8441 0 10.0529 0H8.04233C4.25113 0 2.35555 1.13533e-07 1.17777 1.17157ZM9.80159 4C9.80159 3.58579 9.46401 3.25 9.04762 3.25C8.63123 3.25 8.29365 3.58579 8.29365 4V5.25H7.03701C6.6206 5.25 6.28304 5.58579 6.28304 6C6.28304 6.41421 6.6206 6.75 7.03701 6.75H8.29365V8C8.29365 8.4142 8.63123 8.75 9.04762 8.75C9.46401 8.75 9.80159 8.4142 9.80159 8V6.75H11.0582C11.4746 6.75 11.8122 6.41421 11.8122 6C11.8122 5.58579 11.4746 5.25 11.0582 5.25H9.80159V4ZM5.02645 11.25C4.61005 11.25 4.27249 11.5858 4.27249 12C4.27249 12.4142 4.61005 12.75 5.02645 12.75H13.0688C13.4852 12.75 13.8228 12.4142 13.8228 12C13.8228 11.5858 13.4852 11.25 13.0688 11.25H5.02645ZM6.03175 15.25C5.61534 15.25 5.27778 15.5858 5.27778 16C5.27778 16.4142 5.61534 16.75 6.03175 16.75H12.0635C12.4799 16.75 12.8175 16.4142 12.8175 16C12.8175 15.5858 12.4799 15.25 12.0635 15.25H6.03175Z" fill="#1E88E5"/>
</svg>
