<svg width="102" height="92" viewBox="0 0 102 92" fill="none" xmlns="http://www.w3.org/2000/svg">
<path d="M61.2 81.7778H51V71.5556H61.2V61.3333H51V51.1111H61.2V40.8889H51V30.6667H61.2M40.8 20.4444H30.6V10.2222H40.8M40.8 40.8889H30.6V30.6667H40.8M40.8 61.3333H30.6V51.1111H40.8M40.8 81.7778H30.6V71.5556H40.8M20.4 20.4444H10.2V10.2222H20.4M20.4 40.8889H10.2V30.6667H20.4M20.4 61.3333H10.2V51.1111H20.4M20.4 81.7778H10.2V71.5556H20.4M51 20.4444V0H0V92H102V20.4444H51Z" fill="#CACACA"/>
<path d="M88.2661 60.1485H96V61.2967C93.8051 61.6386 93.2434 62.1382 92.3534 64.9255C91.6103 66.9853 89.6833 72.7528 86.8921 82H85.1466C83.3233 77.0302 81.6123 72.2619 79.7199 67.1781H79.6421C77.8966 72.2619 76.1856 77.1879 74.587 82H72.8415C71.8305 78.6342 69.3072 70.4212 67 62.8219V48C68.1147 51.9005 74.1377 71.5344 75.2869 75.1982H75.3647C76.9633 70.544 78.6311 65.4602 80.1952 60.3413H81.7938C83.6949 65.3813 85.5527 70.5001 87.4106 75.3122H87.4884C88.8191 71.1926 90.1585 65.9598 90.6079 64.084C91.0918 62.1382 90.9449 61.5684 88.2661 61.2967V60.1485Z" fill="white"/>
</svg>
