<svg width="20" height="20" viewBox="0 0 20 20" fill="none" xmlns="http://www.w3.org/2000/svg">
<path d="M15.7606 10.5133C15.1333 10.4213 14.5216 10.243 13.9431 9.98335C15.7275 8.41433 17.5854 6.93099 19.5106 5.53835L19.6356 5.45085L19.7106 5.31335C20.0578 4.5819 20.1522 3.7559 19.9791 2.96497C19.8061 2.17405 19.3753 1.46297 18.7544 0.943348C18.1795 0.411498 17.4488 0.0786707 16.6702 -0.00596442C15.8916 -0.0905995 15.1064 0.0774469 14.4306 0.473348L14.2731 0.639598C12.4023 3.23735 10.3523 5.70127 8.13814 8.01335C5.77929 10.114 3.26458 12.0329 0.615642 13.7533L0.123142 14.0633V14.3508C-0.0628452 15.1309 -0.0810181 15.9416 0.0698262 16.7292C0.22067 17.5168 0.537091 18.2634 0.998142 18.9196C1.35246 19.2886 1.78258 19.5763 2.25885 19.763C2.73513 19.9497 3.24622 20.0308 3.75689 20.0008C4.1936 20.0237 4.62866 19.9316 5.01865 19.7338C5.40864 19.5359 5.73991 19.2392 5.97939 18.8733C6.28564 18.4883 8.56064 15.6133 10.9856 12.9883C11.3206 13.5683 11.5806 14.2421 11.7281 14.9571C11.8854 16.2611 11.7139 17.5838 11.2294 18.8046L13.3356 16.2508L14.9981 17.5008C14.9515 16.0835 14.7058 14.6798 14.2681 13.3308C13.9618 12.7727 13.5766 12.2616 13.1244 11.8133C13.6319 12.2458 14.2131 12.6171 14.8394 12.9058C16.0144 13.3283 17.3256 13.6208 18.6844 13.7458L17.4981 12.1633L19.9981 10.0008C18.8764 10.3611 17.705 10.5429 16.5269 10.5396C16.2569 10.5396 15.9894 10.5304 15.7244 10.5121L15.7606 10.5133ZM15.1981 1.47585C15.5257 1.31526 15.8858 1.23228 16.2506 1.23335C16.8831 1.23335 17.4581 1.47835 17.8869 1.87835C18.2846 2.19777 18.5709 2.63505 18.7045 3.12736C18.8381 3.61966 18.8123 4.14166 18.6306 4.61835C18.0231 5.0021 15.6981 6.7646 13.4481 8.7521C13.3842 8.12538 13.086 7.54591 12.6131 7.1296C12.4014 6.94838 12.1542 6.81341 11.8873 6.73333C11.6204 6.65325 11.3396 6.62984 11.0631 6.6646C12.5199 4.99902 13.8997 3.26763 15.1981 1.47585ZM3.37314 14.7633C3.46933 14.6966 3.58359 14.6609 3.70064 14.6608L3.75064 14.6633H3.83564C4.05939 14.7283 4.25314 14.8408 4.41189 14.9896L3.32314 15.8883C3.18959 15.6102 3.138 15.2998 3.17439 14.9933C3.20892 14.8949 3.27949 14.8131 3.37189 14.7646L3.37314 14.7633ZM4.99814 18.1258C4.87514 18.3435 4.68969 18.5193 4.46574 18.6305C4.2418 18.7417 3.98966 18.7832 3.74189 18.7496C3.40184 18.7811 3.05902 18.737 2.73808 18.6203C2.41713 18.5035 2.12601 18.3172 1.88564 18.0746C1.40845 17.3644 1.15465 16.5277 1.15689 15.6721C1.15773 15.3579 1.18981 15.0538 1.25314 14.7596L2.13564 14.1883C2.01814 14.3633 1.93064 14.5683 1.88689 14.7896C1.81866 15.6584 2.05512 16.5237 2.55564 17.2371L2.99814 17.7871L5.12314 16.0371C5.33553 16.7321 5.28845 17.4805 4.99064 18.1433L4.99814 18.1258ZM6.07314 15.0633C5.64652 14.3161 4.96214 13.7499 4.14814 13.4708C4.05939 13.4558 3.98564 13.4508 3.91064 13.4508C3.83564 13.4508 3.76189 13.4558 3.68939 13.4633C3.544 13.4474 3.39729 13.4474 3.25189 13.4633C4.98328 12.2855 6.64753 11.0118 8.23689 9.64835C8.73439 9.7371 9.25189 9.96085 9.65064 10.3146C10.0219 10.7058 10.2506 11.2383 10.2506 11.8258L10.2481 11.9433C8.93627 13.3501 7.68513 14.8123 6.49814 16.3258C6.43407 15.8746 6.28248 15.4402 6.05189 15.0471L6.07314 15.0633Z" fill="#9A9A9A"/>
</svg>
