<svg width="20" height="20" viewBox="0 0 20 20" fill="none" xmlns="http://www.w3.org/2000/svg">
<g clip-path="url(#clip0_3989_4982)">
<path d="M8.33073 18.3333V5.83333C8.33073 5.61232 8.24293 5.40036 8.08665 5.24408C7.93037 5.0878 7.71841 5 7.4974 5H3.33073C2.8887 5 2.46478 5.17559 2.15222 5.48816C1.83966 5.80072 1.66406 6.22464 1.66406 6.66667V16.6667C1.66406 17.1087 1.83966 17.5326 2.15222 17.8452C2.46478 18.1577 2.8887 18.3333 3.33073 18.3333H13.3307C13.7728 18.3333 14.1967 18.1577 14.5092 17.8452C14.8218 17.5326 14.9974 17.1087 14.9974 16.6667V12.5C14.9974 12.279 14.9096 12.067 14.7533 11.9107C14.597 11.7545 14.3851 11.6667 14.1641 11.6667H1.66406" stroke="#9A9A9A" stroke-width="2" stroke-linecap="round" stroke-linejoin="round"/>
<path d="M17.4974 1.66602H12.4974C12.0372 1.66602 11.6641 2.03911 11.6641 2.49935V7.49935C11.6641 7.95959 12.0372 8.33268 12.4974 8.33268H17.4974C17.9576 8.33268 18.3307 7.95959 18.3307 7.49935V2.49935C18.3307 2.03911 17.9576 1.66602 17.4974 1.66602Z" stroke="#9A9A9A" stroke-width="2" stroke-linecap="round" stroke-linejoin="round"/>
</g>
<defs>
<clipPath id="clip0_3989_4982">
<rect width="20" height="20" fill="white"/>
</clipPath>
</defs>
</svg>
