<svg width="20" height="20" viewBox="0 0 20 20" fill="none" xmlns="http://www.w3.org/2000/svg">
<path d="M10.5562 2.16875C10.2188 1.94375 9.78125 1.94375 9.44375 2.16875L5.19688 5H1.5C0.671875 5 0 5.67188 0 6.5V16.5C0 17.3281 0.671875 18 1.5 18H8V15C8 13.8969 8.89688 13 10 13C11.1031 13 12 13.8969 12 15V18H18.5C19.3281 18 20 17.3281 20 16.5V6.5C20 5.67188 19.3281 5 18.5 5H14.8031L10.5562 2.16875ZM3 8H4C4.275 8 4.5 8.225 4.5 8.5V10.5C4.5 10.775 4.275 11 4 11H3C2.725 11 2.5 10.775 2.5 10.5V8.5C2.5 8.225 2.725 8 3 8ZM15.5 8.5C15.5 8.225 15.725 8 16 8H17C17.275 8 17.5 8.225 17.5 8.5V10.5C17.5 10.775 17.275 11 17 11H16C15.725 11 15.5 10.775 15.5 10.5V8.5ZM3 12H4C4.275 12 4.5 12.225 4.5 12.5V14.5C4.5 14.775 4.275 15 4 15H3C2.725 15 2.5 14.775 2.5 14.5V12.5C2.5 12.225 2.725 12 3 12ZM15.5 12.5C15.5 12.225 15.725 12 16 12H17C17.275 12 17.5 12.225 17.5 12.5V14.5C17.5 14.775 17.275 15 17 15H16C15.725 15 15.5 14.775 15.5 14.5V12.5ZM7.25 7.5C7.25 6.77065 7.53973 6.07118 8.05546 5.55546C8.57118 5.03973 9.27065 4.75 10 4.75C10.7293 4.75 11.4288 5.03973 11.9445 5.55546C12.4603 6.07118 12.75 6.77065 12.75 7.5C12.75 8.22935 12.4603 8.92882 11.9445 9.44454C11.4288 9.96027 10.7293 10.25 10 10.25C9.27065 10.25 8.57118 9.96027 8.05546 9.44454C7.53973 8.92882 7.25 8.22935 7.25 7.5ZM10 6C9.725 6 9.5 6.225 9.5 6.5V7.5C9.5 7.775 9.725 8 10 8H11C11.275 8 11.5 7.775 11.5 7.5C11.5 7.225 11.275 7 11 7H10.5V6.5C10.5 6.225 10.275 6 10 6Z" fill="#9A9A9A"/>
</svg>
