<svg width="20" height="20" viewBox="0 0 20 20" fill="none" xmlns="http://www.w3.org/2000/svg">
<path d="M3.25 1C2.65326 1 2.08097 1.2447 1.65901 1.68027C1.23705 2.11584 1 2.70659 1 3.32258V7.58568C1.32063 7.1769 1.69975 6.81923 2.125 6.52542V3.32258C2.125 3.01459 2.24353 2.71921 2.4545 2.50142C2.66548 2.28364 2.95163 2.16129 3.25 2.16129H16.75C17.0484 2.16129 17.3345 2.28364 17.5455 2.50142C17.7565 2.71921 17.875 3.01459 17.875 3.32258V12.6129C17.875 12.9209 17.7565 13.2163 17.5455 13.4341C17.3345 13.6518 17.0484 13.7742 16.75 13.7742H9.14725C9.06158 13.9053 8.97075 14.0328 8.875 14.1563V14.9355H16.75C17.3467 14.9355 17.919 14.6908 18.341 14.2552C18.7629 13.8196 19 13.2289 19 12.6129V3.32258C19 2.70659 18.7629 2.11584 18.341 1.68027C17.919 1.2447 17.3467 1 16.75 1H3.25ZM4.375 5.06452C4.375 4.91052 4.43426 4.76283 4.53975 4.65394C4.64524 4.54505 4.78832 4.48387 4.9375 4.48387H15.0625C15.2117 4.48387 15.3548 4.54505 15.4602 4.65394C15.5657 4.76283 15.625 4.91052 15.625 5.06452C15.625 5.21851 15.5657 5.3662 15.4602 5.47509C15.3548 5.58399 15.2117 5.64516 15.0625 5.64516H4.9375C4.78832 5.64516 4.64524 5.58399 4.53975 5.47509C4.43426 5.3662 4.375 5.21851 4.375 5.06452ZM4.9375 14.9355C3.89321 14.9355 2.89169 14.5073 2.15327 13.745C1.41484 12.9828 1 11.9489 1 10.871C1 9.79299 1.41484 8.75917 2.15327 7.99692C2.89169 7.23468 3.89321 6.80645 4.9375 6.80645C5.98179 6.80645 6.98331 7.23468 7.72173 7.99692C8.46016 8.75917 8.875 9.79299 8.875 10.871C8.875 11.9489 8.46016 12.9828 7.72173 13.745C6.98331 14.5073 5.98179 14.9355 4.9375 14.9355ZM2.125 15.2165C2.95755 15.7906 3.9363 16.0969 4.9375 16.0968C5.97813 16.0968 6.94562 15.7716 7.75 15.2165V18.4194C7.75 18.5272 7.72091 18.6329 7.66599 18.7246C7.61107 18.8163 7.53249 18.8905 7.43906 18.9387C7.34562 18.9869 7.24102 19.0073 7.13698 18.9977C7.03294 18.988 6.93357 18.9486 6.85 18.8839L5.275 17.6645C5.17763 17.5891 5.05921 17.5484 4.9375 17.5484C4.81579 17.5484 4.69737 17.5891 4.6 17.6645L3.025 18.8839C2.94143 18.9486 2.84206 18.988 2.73802 18.9977C2.63397 19.0073 2.52938 18.9869 2.43594 18.9387C2.34251 18.8905 2.26393 18.8163 2.20901 18.7246C2.15409 18.6329 2.125 18.5272 2.125 18.4194V15.2165ZM10.5625 9.12903C10.4133 9.12903 10.2702 9.19021 10.1648 9.2991C10.0593 9.40799 10 9.55568 10 9.70968C10 9.86367 10.0593 10.0114 10.1648 10.1203C10.2702 10.2291 10.4133 10.2903 10.5625 10.2903H15.0625C15.2117 10.2903 15.3548 10.2291 15.4602 10.1203C15.5657 10.0114 15.625 9.86367 15.625 9.70968C15.625 9.55568 15.5657 9.40799 15.4602 9.2991C15.3548 9.19021 15.2117 9.12903 15.0625 9.12903H10.5625Z" fill="#9A9A9A"/>
</svg>
