<svg width="20" height="20" viewBox="0 0 20 20" fill="none" xmlns="http://www.w3.org/2000/svg">
<path d="M1.66406 1.66602H13.3307C14.9024 1.66602 15.6874 1.66602 16.1757 2.15435C16.6641 2.64268 16.6641 3.42768 16.6641 4.99935V9.99935C16.6641 11.571 16.6641 12.356 16.1757 12.8443C15.6874 13.3327 14.9024 13.3327 13.3307 13.3327H7.4974M8.33073 5.41602H13.3307M1.66406 14.166V10.8327C1.66406 10.0468 1.66406 9.65435 1.90823 9.41018C2.1524 9.16602 2.5449 9.16602 3.33073 9.16602H4.9974M1.66406 14.166H4.9974M1.66406 14.166V18.3327M4.9974 9.16602V14.166M4.9974 9.16602H9.9974M4.9974 14.166V18.3327" stroke="#9A9A9A" stroke-width="1.5" stroke-linecap="round" stroke-linejoin="round"/>
<path d="M4.9974 5.41667C4.9974 5.85869 4.8218 6.28262 4.50924 6.59518C4.19668 6.90774 3.77276 7.08333 3.33073 7.08333C2.8887 7.08333 2.46478 6.90774 2.15222 6.59518C1.83966 6.28262 1.66406 5.85869 1.66406 5.41667C1.66406 4.97464 1.83966 4.55072 2.15222 4.23816C2.46478 3.92559 2.8887 3.75 3.33073 3.75C3.77276 3.75 4.19668 3.92559 4.50924 4.23816C4.8218 4.55072 4.9974 4.97464 4.9974 5.41667Z" stroke="#9A9A9A" stroke-width="1.5" stroke-linecap="round" stroke-linejoin="round"/>
</svg>
