<svg width="20" height="20" viewBox="0 0 20 20" fill="none" xmlns="http://www.w3.org/2000/svg">
<path d="M18.5265 4.21842L10.2189 1.49973C10.0767 1.45322 9.9231 1.45322 9.78098 1.49973L1.47336 4.21842C1.33551 4.26353 1.21561 4.35009 1.13066 4.46582C1.0457 4.58155 0.999989 4.7206 1 4.86325V11.66C1 11.8402 1.07294 12.0131 1.20277 12.1406C1.3326 12.268 1.50869 12.3396 1.6923 12.3396C1.87591 12.3396 2.052 12.268 2.18183 12.1406C2.31166 12.0131 2.3846 11.8402 2.3846 11.66V5.8063L5.29141 6.75699C4.51911 7.98193 4.27352 9.4577 4.60857 10.8603C4.94362 12.2628 5.83191 13.4775 7.07841 14.2376C5.52073 14.8374 4.1742 15.9224 3.1894 17.4058C3.13819 17.4805 3.10261 17.5645 3.08475 17.6528C3.06688 17.7412 3.06708 17.8321 3.08534 17.9204C3.10359 18.0087 3.13953 18.0925 3.19108 18.167C3.24262 18.2415 3.30874 18.3052 3.38559 18.3545C3.46243 18.4037 3.54848 18.4374 3.63872 18.4537C3.72895 18.4699 3.82159 18.4684 3.91123 18.4493C4.00087 18.4301 4.08574 18.3936 4.16089 18.3419C4.23605 18.2903 4.29999 18.2244 4.34901 18.1483C5.65313 16.184 7.71273 15.0583 9.99992 15.0583C12.2871 15.0583 14.3467 16.184 15.6508 18.1483C15.7524 18.2965 15.9092 18.3994 16.0875 18.435C16.2657 18.4705 16.4511 18.4357 16.6034 18.3382C16.7558 18.2406 16.8629 18.0881 16.9016 17.9136C16.9404 17.7391 16.9076 17.5567 16.8104 17.4058C15.8256 15.9224 14.4739 14.8374 12.9214 14.2376C14.1667 13.4775 15.0542 12.2636 15.3892 10.8621C15.7242 9.46058 15.4794 7.98582 14.7084 6.76124L18.5265 5.51234C18.6644 5.46725 18.7843 5.38071 18.8693 5.26497C18.9543 5.14924 19 5.01018 19 4.8675C19 4.72483 18.9543 4.58577 18.8693 4.47003C18.7843 4.3543 18.6644 4.26775 18.5265 4.22266V4.21842ZM14.1537 9.62096C14.1539 10.2657 13.9984 10.9013 13.6999 11.4755C13.4015 12.0498 12.9686 12.5464 12.4368 12.9247C11.9049 13.3029 11.2894 13.5519 10.6405 13.6514C9.99168 13.7508 9.32808 13.6978 8.70415 13.4967C8.08022 13.2955 7.51376 12.952 7.05123 12.4944C6.5887 12.0367 6.24329 11.4779 6.04334 10.8638C5.84339 10.2497 5.7946 9.59779 5.90096 8.96159C6.00733 8.32539 6.26582 7.72301 6.65524 7.20388L9.78098 8.22338C9.9231 8.2699 10.0767 8.2699 10.2189 8.22338L13.3446 7.20388C13.8705 7.90396 14.1541 8.75107 14.1537 9.62096Z" fill="#9A9A9A"/>
</svg>
