<svg width="20" height="20" viewBox="0 0 20 20" fill="none" xmlns="http://www.w3.org/2000/svg">
<path d="M19.1051 11.5099C18.9197 11.1577 18.6506 10.9144 18.2578 10.8164C17.9196 10.7329 17.5851 10.6385 17.2469 10.555C16.4433 10.3589 15.6433 10.1411 14.8905 9.7889C14.5341 9.62189 14.2032 9.40041 13.8505 9.22976C13.6069 9.11358 13.505 9.1753 13.476 9.44398C13.4541 9.6473 13.1269 11.3356 12.9269 11.9601C12.7414 12.5447 12.3305 13.5322 12.0287 14.2402C11.9014 14.538 11.4723 14.5198 11.3741 14.2112C11.1887 13.6412 10.9559 12.9223 10.8105 12.4648C10.785 12.3813 10.7923 12.3159 10.8468 12.2433C11.0214 12.0037 11.1996 11.764 11.3414 11.5026C11.4687 11.2703 11.425 11.0161 11.2177 10.7801C11.0141 10.5441 10.8541 10.4751 10.585 10.6204C10.1705 10.8491 9.785 10.8164 9.38864 10.5986C9.30863 10.555 9.21772 10.526 9.12318 10.5514C8.70863 10.6494 8.48317 11.165 8.6759 11.5389C8.79954 11.7713 8.98136 11.9601 9.11954 12.1816C9.18863 12.2941 9.22136 12.3958 9.17772 12.5338C9.08681 12.8097 8.84681 13.5794 8.65408 14.2148C8.5559 14.5307 8.11589 14.5489 7.99226 14.2439C7.61407 13.3144 7.0577 11.8948 6.85043 11.1396C6.68679 10.555 6.56315 9.96318 6.52679 9.35684C6.51588 9.19709 6.43587 9.16078 6.29769 9.19345C6.18133 9.21887 6.07223 9.27333 5.97042 9.33869C5.26495 9.78164 4.50131 10.0866 3.7013 10.319C3.15584 10.4751 2.6031 10.5949 2.05764 10.7365C1.61764 10.8491 1.19582 10.9834 0.966722 11.43C0.897631 11.568 0.181259 13.9389 0.0248933 14.8284C-0.0732897 15.3912 0.123076 15.9649 0.541263 16.3534C0.839448 16.6257 1.174 16.9234 1.40673 17.1013C3.92312 18.9966 6.75588 19.966 9.90501 19.9987C10.8977 20.0096 11.8832 19.9079 12.8578 19.7118C13.7741 19.5267 14.6614 19.2543 15.5232 18.8949C16.6724 18.4156 18.3887 17.1086 19.3706 16.3243C19.8433 15.9467 20.076 15.3404 19.9778 14.7413C19.8906 14.2039 19.3815 12.0436 19.1015 11.5208L19.1051 11.5099Z" fill="#9A9A9A"/>
<path d="M10.0068 9.59252C12.3404 9.59252 14.2323 7.44516 14.2323 4.79626C14.2323 2.14736 12.3404 0 10.0068 0C7.67307 0 5.78125 2.14736 5.78125 4.79626C5.78125 7.44516 7.67307 9.59252 10.0068 9.59252Z" fill="#9A9A9A"/>
</svg>
