<svg width="20" height="20" viewBox="0 0 20 20" fill="none" xmlns="http://www.w3.org/2000/svg">
<g clip-path="url(#clip0_4230_8487)">
<path d="M18.1818 14.5455V6.36364H5.45455V14.5455H18.1818ZM18.1818 1.81818C18.664 1.81818 19.1265 2.00974 19.4675 2.35071C19.8084 2.69169 20 3.15415 20 3.63636V14.5455C20 15.0277 19.8084 15.4901 19.4675 15.8311C19.1265 16.1721 18.664 16.3636 18.1818 16.3636H5.45455C4.97233 16.3636 4.50987 16.1721 4.1689 15.8311C3.82792 15.4901 3.63636 15.0277 3.63636 14.5455V3.63636C3.63636 3.15415 3.82792 2.69169 4.1689 2.35071C4.50987 2.00974 4.97233 1.81818 5.45455 1.81818H6.36364V0H8.18182V1.81818H15.4545V0H17.2727V1.81818H18.1818ZM15.0273 9.14546L10.9909 13.1818L8.55455 10.7455L9.51818 9.78182L10.9909 11.2545L14.0636 8.18182L15.0273 9.14546ZM1.81818 18.1818H14.5455V20H1.81818C1.33597 20 0.873508 19.8084 0.532533 19.4675C0.191558 19.1265 0 18.664 0 18.1818V7.27273H1.81818V18.1818Z" fill="#9A9A9A"/>
</g>
<defs>
<clipPath id="clip0_4230_8487">
<rect width="20" height="20" fill="white"/>
</clipPath>
</defs>
</svg>
