<svg width="20" height="20" viewBox="0 0 20 20" fill="none" xmlns="http://www.w3.org/2000/svg">
<path d="M3.80958 13.0769V10.6154H6.28575V13.0769H3.80958ZM16.1904 3.83877C16.1885 3.35042 15.9919 2.88274 15.6439 2.53811C15.2958 2.19349 14.8245 2 14.3333 2H1.85713C1.36459 2 0.892218 2.19451 0.543939 2.54073C0.195661 2.88695 0 3.35652 0 3.84615V14.9231C0 15.7391 0.326102 16.5218 0.906566 17.0988C1.48703 17.6758 2.27431 18 3.09521 18H16.9048C17.7257 18 18.513 17.6758 19.0934 17.0988C19.6739 16.5218 20 15.7391 20 14.9231V7.53846C20 7.04883 19.8043 6.57925 19.4561 6.23303C19.1078 5.88681 18.6354 5.69231 18.1429 5.69231H17.4285V14.5908C17.4285 14.754 17.3633 14.9105 17.2472 15.0259C17.1311 15.1413 16.9736 15.2062 16.8095 15.2062C16.6453 15.2062 16.4878 15.1413 16.3717 15.0259C16.2556 14.9105 16.1904 14.754 16.1904 14.5908V3.83877ZM2.5715 6.30769C2.5715 6.14448 2.63672 5.98796 2.75281 5.87255C2.86891 5.75714 3.02636 5.69231 3.19054 5.69231H13.0952C13.2594 5.69231 13.4168 5.75714 13.5329 5.87255C13.649 5.98796 13.7143 6.14448 13.7143 6.30769C13.7143 6.4709 13.649 6.62743 13.5329 6.74284C13.4168 6.85824 13.2594 6.92308 13.0952 6.92308H3.19054C3.02636 6.92308 2.86891 6.85824 2.75281 6.74284C2.63672 6.62743 2.5715 6.4709 2.5715 6.30769ZM9.38096 9.38462H13.0952C13.2594 9.38462 13.4168 9.44945 13.5329 9.56486C13.649 9.68026 13.7143 9.83679 13.7143 10C13.7143 10.1632 13.649 10.3197 13.5329 10.4351C13.4168 10.5506 13.2594 10.6154 13.0952 10.6154H9.38096C9.21678 10.6154 9.05932 10.5506 8.94323 10.4351C8.82714 10.3197 8.76192 10.1632 8.76192 10C8.76192 9.83679 8.82714 9.68026 8.94323 9.56486C9.05932 9.44945 9.21678 9.38462 9.38096 9.38462ZM8.76192 13.6923C8.76192 13.5291 8.82714 13.3726 8.94323 13.2572C9.05932 13.1418 9.21678 13.0769 9.38096 13.0769H13.0952C13.2594 13.0769 13.4168 13.1418 13.5329 13.2572C13.649 13.3726 13.7143 13.5291 13.7143 13.6923C13.7143 13.8555 13.649 14.012 13.5329 14.1275C13.4168 14.2429 13.2594 14.3077 13.0952 14.3077H9.38096C9.21678 14.3077 9.05932 14.2429 8.94323 14.1275C8.82714 14.012 8.76192 13.8555 8.76192 13.6923ZM3.19054 9.38462H6.90479C7.06897 9.38462 7.22643 9.44945 7.34252 9.56486C7.45861 9.68026 7.52383 9.83679 7.52383 10V13.6923C7.52383 13.8555 7.45861 14.012 7.34252 14.1275C7.22643 14.2429 7.06897 14.3077 6.90479 14.3077H3.19054C3.02636 14.3077 2.86891 14.2429 2.75281 14.1275C2.63672 14.012 2.5715 13.8555 2.5715 13.6923V10C2.5715 9.83679 2.63672 9.68026 2.75281 9.56486C2.86891 9.44945 3.02636 9.38462 3.19054 9.38462Z" fill="#9A9A9A"/>
</svg>
