<svg width="20" height="20" viewBox="0 0 20 20" fill="none" xmlns="http://www.w3.org/2000/svg">
<g clip-path="url(#clip0_4230_1017)">
<path d="M13.125 13.125C12.9389 12.4294 12.5353 11.8116 11.973 11.3619C11.4108 10.9121 10.7194 10.6539 10 10.625C9.28057 10.6539 8.58922 10.9121 8.02698 11.3619C7.46475 11.8116 7.06109 12.4294 6.875 13.125M13.7508 3.5C14.8924 4.16017 15.8407 5.10844 16.5008 6.25M16.5008 13.75C15.8407 14.8916 14.8924 15.8398 13.7508 16.5M6.25083 16.5C5.10927 15.8398 4.16101 14.8916 3.50083 13.75M3.50083 6.25C4.16101 5.10844 5.10927 4.16017 6.25083 3.5M8.125 8.125C8.11974 8.3745 8.16434 8.62254 8.25618 8.85458C8.34802 9.08662 8.48526 9.29799 8.65986 9.4763C8.83445 9.65461 9.04288 9.79628 9.27293 9.89299C9.50298 9.98971 9.75003 10.0395 9.99958 10.0395C10.2491 10.0395 10.4962 9.98971 10.7262 9.89299C10.9563 9.79628 11.1647 9.65461 11.3393 9.4763C11.5139 9.29799 11.6511 9.08662 11.743 8.85458C11.8348 8.62254 11.8794 8.3745 11.8742 8.125C11.8638 7.63467 11.6618 7.16791 11.3114 6.8248C10.9609 6.48168 10.49 6.28953 9.99958 6.28953C9.50915 6.28953 9.03823 6.48168 8.68781 6.8248C8.33738 7.16791 8.13534 7.63467 8.125 8.125ZM8.4375 2.1875C8.4375 2.6019 8.60212 2.99933 8.89515 3.29235C9.18817 3.58538 9.5856 3.75 10 3.75C10.4144 3.75 10.8118 3.58538 11.1049 3.29235C11.3979 2.99933 11.5625 2.6019 11.5625 2.1875C11.5625 1.7731 11.3979 1.37567 11.1049 1.08265C10.8118 0.78962 10.4144 0.625 10 0.625C9.5856 0.625 9.18817 0.78962 8.89515 1.08265C8.60212 1.37567 8.4375 1.7731 8.4375 2.1875ZM16.25 10C16.25 10.4144 16.4146 10.8118 16.7076 11.1049C17.0007 11.3979 17.3981 11.5625 17.8125 11.5625C18.2269 11.5625 18.6243 11.3979 18.9174 11.1049C19.2104 10.8118 19.375 10.4144 19.375 10C19.375 9.5856 19.2104 9.18817 18.9174 8.89515C18.6243 8.60212 18.2269 8.4375 17.8125 8.4375C17.3981 8.4375 17.0007 8.60212 16.7076 8.89515C16.4146 9.18817 16.25 9.5856 16.25 10ZM8.4375 17.8125C8.4375 18.2269 8.60212 18.6243 8.89515 18.9174C9.18817 19.2104 9.5856 19.375 10 19.375C10.4144 19.375 10.8118 19.2104 11.1049 18.9174C11.3979 18.6243 11.5625 18.2269 11.5625 17.8125C11.5625 17.3981 11.3979 17.0007 11.1049 16.7076C10.8118 16.4146 10.4144 16.25 10 16.25C9.5856 16.25 9.18817 16.4146 8.89515 16.7076C8.60212 17.0007 8.4375 17.3981 8.4375 17.8125ZM0.625 10C0.625 10.4144 0.78962 10.8118 1.08265 11.1049C1.37567 11.3979 1.7731 11.5625 2.1875 11.5625C2.6019 11.5625 2.99933 11.3979 3.29235 11.1049C3.58538 10.8118 3.75 10.4144 3.75 10C3.75 9.5856 3.58538 9.18817 3.29235 8.89515C2.99933 8.60212 2.6019 8.4375 2.1875 8.4375C1.7731 8.4375 1.37567 8.60212 1.08265 8.89515C0.78962 9.18817 0.625 9.5856 0.625 10Z" stroke="#9A9A9A" stroke-width="1.5" stroke-linecap="round" stroke-linejoin="round"/>
</g>
<defs>
<clipPath id="clip0_4230_1017">
<rect width="20" height="20" fill="white"/>
</clipPath>
</defs>
</svg>
