<svg width="20" height="20" viewBox="0 0 20 20" fill="none" xmlns="http://www.w3.org/2000/svg">
<path d="M18.1839 3.63636L10.0021 0L1.82031 3.63636V9.09091C1.82031 14.1364 5.31122 18.8545 10.0021 20C12.093 19.4909 13.9385 18.2727 15.3476 16.6273L12.5112 13.7909C11.6373 14.3685 10.5905 14.6262 9.54834 14.5201C8.50616 14.4141 7.53271 13.9509 6.79304 13.2091C5.94157 12.3563 5.46332 11.2005 5.46332 9.99545C5.46332 8.79038 5.94157 7.63457 6.79304 6.78182C7.64579 5.93034 8.80161 5.4521 10.0067 5.4521C11.2117 5.4521 12.3676 5.93034 13.2203 6.78182C13.9603 7.52256 14.4222 8.4958 14.5282 9.53744C14.6342 10.5791 14.3777 11.6254 13.8021 12.5L16.4385 15.1364C17.5385 13.3545 18.1839 11.2545 18.1839 9.09091V3.63636Z" fill="#9A9A9A"/>
<path d="M10 12.5C11.3807 12.5 12.5 11.3807 12.5 10C12.5 8.61929 11.3807 7.5 10 7.5C8.61929 7.5 7.5 8.61929 7.5 10C7.5 11.3807 8.61929 12.5 10 12.5Z" fill="#9A9A9A"/>
</svg>
