<svg width="20" height="20" viewBox="0 0 20 20" fill="none" xmlns="http://www.w3.org/2000/svg">
<g clip-path="url(#clip0_4230_5717)">
<path d="M0.835938 14.584V17.6395C0.835938 18.0447 0.996899 18.4333 1.28341 18.7198C1.56993 19.0064 1.95852 19.1673 2.36372 19.1673H5.41927M14.5859 19.1673H17.6415C18.0467 19.1673 18.4353 19.0064 18.7218 18.7198C19.0083 18.4333 19.1693 18.0447 19.1693 17.6395V14.584M19.1693 5.41732V2.36176C19.1693 1.95657 19.0083 1.56797 18.7218 1.28146C18.4353 0.994946 18.0467 0.833984 17.6415 0.833984H14.5859M0.835938 5.41732V2.36176C0.835938 1.95657 0.996899 1.56797 1.28341 1.28146C1.56993 0.994946 1.95852 0.833984 2.36372 0.833984H5.41927" stroke="#9A9A9A" stroke-width="2" stroke-linecap="round" stroke-linejoin="round"/>
<path d="M15.097 10.0014L10.0044 15.094L4.9118 10.0014C4.40254 9.49213 4.14791 8.47362 4.9118 7.4551C5.67569 6.43658 7.20347 6.43658 7.96736 6.94584C8.73125 7.4551 8.98588 7.96436 10.0044 7.96436C11.0229 7.96436 11.2775 7.4551 12.0414 6.94584C12.8053 6.43658 14.3331 6.43658 15.097 7.4551C15.8609 8.47362 15.6062 9.49213 15.097 10.0014Z" fill="#9A9A9A" stroke="#9A9A9A" stroke-width="2" stroke-linecap="round" stroke-linejoin="round"/>
</g>
<defs>
<clipPath id="clip0_4230_5717">
<rect width="20" height="20" fill="white"/>
</clipPath>
</defs>
</svg>
