<svg width="23" height="25" viewBox="0 0 23 25" fill="none" xmlns="http://www.w3.org/2000/svg">
<path d="M21.7162 17.3907C20.7469 16.2793 19.4197 14.7057 19.4197 13.1003V7.98779C19.4197 3.58343 15.9251 0 11.4597 0C6.9934 0 3.52627 3.58346 3.52627 7.98779V13.1003C3.52627 14.6787 2.08606 16.1705 1.1729 17.3281C0.351458 18.3682 -0.296761 19.1899 0.140939 20.0112C0.5259 20.7338 1.48975 20.8266 2.28623 20.8266H7.04528C7.04653 23.1315 9.02947 25 11.475 25C13.921 25 15.904 23.1315 15.9052 20.8266H20.776C21.2826 20.8266 22.467 20.8266 22.8747 20.0143C23.2863 19.1919 22.6276 18.4359 21.7161 17.3907L21.7162 17.3907ZM11.4742 23.3598C9.98917 23.3598 8.78446 22.2257 8.78238 20.8266H14.166C14.1639 22.2257 12.9601 23.3598 11.4742 23.3598ZM20.776 19.1598H2.2862C2.15913 19.1598 2.05284 19.1558 1.96522 19.1507C2.13631 18.901 2.38753 18.582 2.59184 18.3224C3.6039 17.0403 5.2949 15.2306 5.2949 13.1007V7.98814C5.2949 4.50254 7.96927 1.66717 11.4597 1.66717C14.9501 1.66717 17.6515 4.50254 17.6515 7.98814V13.1007C17.6515 15.303 19.2109 17.1437 20.35 18.4492C20.5418 18.6692 20.7715 18.9327 20.95 19.1578C20.8973 19.1589 20.8391 19.1597 20.776 19.1597L20.776 19.1598Z" fill="black"/>
</svg>
