<svg width="24" height="24" viewBox="0 0 24 24" fill="none" xmlns="http://www.w3.org/2000/svg">
<path d="M11.9629 9.58984C15.9421 9.58984 19.168 12.8158 19.168 16.7949C19.1677 20.7739 15.9419 23.999 11.9629 23.999C7.98402 23.9988 4.75806 20.7738 4.75781 16.7949C4.75781 12.8159 7.98387 9.59002 11.9629 9.58984ZM11.6729 11.7549C11.6245 11.755 11.5823 11.7721 11.5469 11.8076C11.5114 11.8432 11.4941 11.8858 11.4941 11.9346V12.9473C10.9079 13.0597 10.4314 13.3103 10.0654 13.7002C9.69953 14.0901 9.51666 14.5442 9.5166 15.0615C9.5166 15.2153 9.53271 15.3622 9.56445 15.501C9.59618 15.6395 9.63501 15.7645 9.68164 15.875C9.72831 15.9855 9.79504 16.0944 9.88086 16.2012C9.96662 16.3079 10.0476 16.3998 10.124 16.4766C10.2006 16.5534 10.3006 16.6333 10.4238 16.7158C10.5469 16.7982 10.6525 16.8644 10.7402 16.915C10.828 16.9657 10.9452 17.0242 11.0908 17.0898C11.2364 17.1554 11.3516 17.2046 11.4355 17.2383C11.5195 17.272 11.634 17.319 11.7793 17.3789C11.9807 17.4575 12.1304 17.5184 12.2275 17.5615C12.3246 17.6046 12.4483 17.6653 12.5977 17.7422C12.7469 17.819 12.8557 17.8894 12.9248 17.9531C12.9939 18.0169 13.0573 18.0957 13.1133 18.1895C13.1691 18.2831 13.1973 18.3825 13.1973 18.4873C13.1972 18.7835 13.0822 19.0126 12.8525 19.1738C12.6229 19.335 12.3562 19.415 12.0537 19.415C11.9157 19.415 11.7777 19.4001 11.6396 19.3701C11.1542 19.2726 10.7003 19.0382 10.2783 18.667L10.2676 18.6562C10.234 18.615 10.1888 18.598 10.1328 18.6055C10.0731 18.613 10.03 18.6354 10.0039 18.6729L9.42676 19.4326C9.37108 19.5075 9.37512 19.5845 9.43848 19.6631C9.45715 19.6855 9.48979 19.719 9.53613 19.7637C9.5828 19.8087 9.66996 19.879 9.79688 19.9746C9.92379 20.0702 10.0616 20.1608 10.2109 20.2451C10.3603 20.3295 10.5506 20.4126 10.7803 20.4951C11.0098 20.5775 11.2478 20.6362 11.4941 20.6699V21.6543C11.4942 21.7028 11.5117 21.7448 11.5469 21.7803C11.5823 21.8158 11.6245 21.8339 11.6729 21.834H12.4297C12.4819 21.8339 12.525 21.8169 12.5586 21.7832C12.592 21.7496 12.6083 21.7065 12.6084 21.6543V20.6699C13.2022 20.5724 13.6851 20.3157 14.0566 19.9014C14.428 19.4871 14.6142 18.9935 14.6143 18.4199C14.6143 18.2324 14.5896 18.0556 14.541 17.8906C14.4925 17.726 14.4342 17.5826 14.3652 17.4609C14.2962 17.3391 14.1971 17.2197 14.0684 17.1035C13.9395 16.9873 13.8234 16.8935 13.7207 16.8223C13.618 16.751 13.4771 16.6711 13.2979 16.583C13.1187 16.4949 12.9766 16.4298 12.8721 16.3867C12.7675 16.3436 12.6159 16.284 12.418 16.209C12.2428 16.1416 12.1122 16.0903 12.0264 16.0547C11.9405 16.0191 11.8275 15.968 11.6875 15.9023C11.5477 15.8368 11.4431 15.7791 11.374 15.7285C11.305 15.6779 11.2307 15.616 11.1523 15.543C11.074 15.4699 11.0191 15.3919 10.9873 15.3096C10.9556 15.2271 10.9395 15.1366 10.9395 15.0391C10.9395 14.7842 11.0515 14.5762 11.2754 14.415C11.4994 14.2538 11.7889 14.1729 12.1436 14.1729C12.3004 14.1729 12.4606 14.1942 12.623 14.2373C12.7854 14.2804 12.9243 14.3295 13.04 14.3838C13.1558 14.4382 13.2655 14.4988 13.3682 14.5645C13.4704 14.6298 13.543 14.6792 13.5859 14.7129C13.6285 14.7463 13.6556 14.7689 13.667 14.7803C13.7154 14.8177 13.7662 14.8314 13.8184 14.8203C13.8744 14.8166 13.9174 14.7857 13.9473 14.7295L14.4014 13.9092C14.4462 13.8342 14.4364 13.7628 14.373 13.6953C14.3506 13.6728 14.3227 13.6462 14.2891 13.6162C14.2554 13.5862 14.1823 13.5318 14.0703 13.4531C13.9584 13.3745 13.8398 13.304 13.7148 13.2422C13.5898 13.1803 13.4273 13.1174 13.2275 13.0537C13.0278 12.99 12.8212 12.9473 12.6084 12.9248V11.9346C12.6084 11.8821 12.5922 11.8384 12.5586 11.8047C12.525 11.771 12.4818 11.7549 12.4297 11.7549H11.6729Z" fill="white"/>
<path d="M23.6465 5.59961L17.6729 8.2793V10.708C16.475 9.29826 14.3661 8.36139 11.9629 8.36133C9.55762 8.36135 7.44637 9.29925 6.24902 10.7109V8.24512L2.8916 6.73828V7.9502C3.24394 8.15955 3.49013 8.63024 3.49023 9.17773C3.49023 9.56921 3.36243 9.92039 3.16211 10.166L4.26465 13.1367H0.773438L1.85254 10.2266C1.62214 9.98027 1.47363 9.60211 1.47363 9.17773C1.47374 8.59319 1.75458 8.09691 2.14551 7.91211V6.4043L0.351562 5.59961L12.0742 0L23.6465 5.59961Z" fill="white"/>
</svg>
