<svg width="22" height="17" viewBox="0 0 22 17" fill="none" xmlns="http://www.w3.org/2000/svg">
<g clip-path="url(#clip0_3802_9898)">
<path d="M5.00002 16.504V8.00387L2.36388 5.59221L0 4.25391V15.0039C0 15.8339 0.672461 16.504 1.50004 16.504H5.00002Z" fill="#4285F4"/>
<path d="M17 16.5039H20.5C21.33 16.5039 22 15.8313 22 15.0038V4.25391L19.3225 5.78677L17 8.00379V16.5039Z" fill="#34A853"/>
<path d="M4.99933 8.00388L4.64062 4.68265L4.99933 1.50391L10.9993 6.00394L16.9993 1.50391L17.4005 4.51103L16.9993 8.00388L10.9993 12.5039L4.99933 8.00388Z" fill="#EA4335"/>
<path d="M17 1.50422V8.00419L22 4.25422V2.2542C22 0.399239 19.8825 -0.658222 18.4001 0.454239L17 1.50422Z" fill="#FBBC04"/>
<path d="M0 4.25426L2.2996 5.97903L5.00002 8.00423V1.50426L3.59992 0.454278C2.11492 -0.658268 0 0.399278 0 2.25415V4.25426Z" fill="#C5221F"/>
</g>
<defs>
<clipPath id="clip0_3802_9898">
<rect width="22" height="16.5859" fill="white"/>
</clipPath>
</defs>
</svg>
