<svg width="23" height="20" viewBox="0 0 23 20" fill="none" xmlns="http://www.w3.org/2000/svg">
<g clip-path="url(#clip0_3802_5413)">
<path d="M1.69031 17.1205L2.67633 18.8236C2.88122 19.1822 3.17572 19.4639 3.52148 19.6688C4.51182 18.4117 5.20119 17.447 5.58961 16.7747C5.98378 16.0925 6.46824 15.0254 7.04297 13.5734C5.49397 13.3695 4.32017 13.2676 3.52157 13.2676C2.75505 13.2676 1.58119 13.3695 0 13.5734C0 13.9704 0.102445 14.3673 0.307336 14.7259L1.69031 17.1205Z" fill="#0066DA"/>
<path d="M18.8368 19.6688C19.1826 19.4639 19.4771 19.1822 19.6819 18.8236L20.0917 18.1194L22.051 14.7259C22.2521 14.3751 22.358 13.9778 22.3583 13.5734C20.7679 13.3695 19.5962 13.2676 18.8432 13.2676C18.034 13.2676 16.8623 13.3695 15.3281 13.5734C15.896 15.0334 16.3741 16.1005 16.7624 16.7747C17.1539 17.455 17.8453 18.4197 18.8368 19.6688Z" fill="#EA4335"/>
<path d="M11.1787 6.40271C12.3246 5.01884 13.1142 3.95173 13.5477 3.2014C13.8968 2.5972 14.281 1.63252 14.7002 0.307336C14.3544 0.102445 13.9575 0 13.5477 0H8.80972C8.39993 0 8.00308 0.115284 7.65723 0.307336C8.19056 1.82716 8.64308 2.90879 9.01478 3.55223C9.42561 4.26332 10.1469 5.21348 11.1787 6.40271Z" fill="#00832D"/>
<path d="M15.3152 13.5742H7.04288L3.52148 19.6696C3.86716 19.8745 4.2641 19.9769 4.67389 19.9769H17.6842C18.094 19.9769 18.491 19.8616 18.8367 19.6695L15.3152 13.5742Z" fill="#2684FC"/>
<path d="M11.1791 6.40193L7.65773 0.306641C7.31188 0.511531 7.01738 0.793191 6.81249 1.15179L0.307336 12.4205C0.106223 12.7713 0.000277861 13.1686 0 13.573H7.04297L11.1791 6.40193Z" fill="#00AC47"/>
<path d="M18.7989 6.7862L15.5462 1.15179C15.3414 0.793191 15.0468 0.511531 14.7011 0.306641L11.1797 6.40201L15.3158 13.5731H22.346C22.346 13.1761 22.2435 12.7792 22.0386 12.4206L18.7989 6.7862Z" fill="#FFBA00"/>
</g>
<defs>
<clipPath id="clip0_3802_5413">
<rect width="22.3581" height="20" fill="white"/>
</clipPath>
</defs>
</svg>
