<svg width="18" height="18" viewBox="0 0 18 18" fill="none" xmlns="http://www.w3.org/2000/svg">
<path d="M9.11842 0C9.32571 0 9.52451 0.0812752 9.67108 0.225946C9.81765 0.370617 9.9 0.566833 9.9 0.771429C9.9 0.976024 9.81765 1.17224 9.67108 1.31691C9.52451 1.46158 9.32571 1.54286 9.11842 1.54286C7.11464 1.54286 5.19293 2.32852 3.77604 3.727C2.35916 5.12549 1.56316 7.02224 1.56316 9C1.56316 10.9778 2.35916 12.8745 3.77604 14.273C5.19293 15.6715 7.11464 16.4571 9.11842 16.4571C9.32571 16.4571 9.52451 16.5384 9.67108 16.6831C9.81765 16.8278 9.9 17.024 9.9 17.2286C9.9 17.4332 9.81765 17.6294 9.67108 17.7741C9.52451 17.9187 9.32571 18 9.11842 18C6.70007 18 4.38076 17.0518 2.67072 15.364C0.960688 13.6761 0 11.3869 0 9C0 6.61305 0.960688 4.32387 2.67072 2.63604C4.38076 0.948212 6.70007 0 9.11842 0Z" fill="white"/>
<path d="M13.6458 6.76259C13.511 6.60904 13.4376 6.40595 13.4411 6.1961C13.4446 5.98626 13.5247 5.78604 13.6645 5.63764C13.8043 5.48923 13.9929 5.40422 14.1906 5.40052C14.3883 5.39681 14.5796 5.47471 14.7243 5.61779L17.7766 8.85779C17.9195 9.00966 17.9998 9.21554 17.9998 9.43019C17.9998 9.64484 17.9195 9.85071 17.7766 10.0026L14.7243 13.2426C14.6544 13.3222 14.5702 13.386 14.4766 13.4303C14.383 13.4745 14.2819 13.4983 14.1795 13.5003C14.077 13.5022 13.9752 13.4822 13.8802 13.4414C13.7852 13.4007 13.6989 13.3401 13.6264 13.2631C13.554 13.1862 13.4968 13.0946 13.4585 12.9938C13.4201 12.8929 13.4012 12.7849 13.403 12.6761C13.4048 12.5673 13.4273 12.4601 13.469 12.3607C13.5107 12.2614 13.5708 12.1719 13.6458 12.0978L15.3958 10.2402H7.06289C6.86051 10.2402 6.66641 10.1548 6.52331 10.0029C6.3802 9.85104 6.2998 9.64501 6.2998 9.43019C6.2998 9.21536 6.3802 9.00933 6.52331 8.85743C6.66641 8.70553 6.86051 8.62019 7.06289 8.62019H15.3958L13.6458 6.76259Z" fill="white"/>
</svg>
