<svg width="20" height="20" viewBox="0 0 20 20" fill="none" xmlns="http://www.w3.org/2000/svg">
<path d="M9.02051 0.491211C9.51222 0.00167946 10.3438 -0.0279117 10.876 0.398438L10.9785 0.490234L13.1084 2.62305L13.2246 2.73828L13.2744 2.58301C13.7062 1.24037 14.9661 0.265788 16.4482 0.265625C18.2864 0.265625 19.7822 1.76265 19.7822 3.60254C19.7822 5.08576 18.8093 6.34695 17.4668 6.77832L17.3105 6.82812L17.4268 6.94434L19.4961 9.0127C20.0348 9.55322 20.0342 10.4328 19.4961 10.9727L10.9795 19.4951C10.7167 19.7572 10.3693 19.9004 10 19.9004C9.6305 19.9004 9.28309 19.757 9.02148 19.4961L0.50293 10.9736C-0.0345284 10.4332 -0.0349262 9.55288 0.500977 9.01367L0.501953 9.01465L3.62207 5.89258C3.78392 5.73065 4.03288 5.69257 4.23633 5.79883C4.43868 5.90484 4.54949 6.13013 4.50977 6.35547C4.47724 6.53796 4.46193 6.68744 4.46191 6.82422C4.46191 8.24487 5.61709 9.42653 7.04004 9.42676C8.47037 9.42676 9.50684 8.23878 9.50684 6.82422C9.50669 5.40675 8.46919 4.24316 7.04004 4.24316C6.90456 4.24319 6.75606 4.25889 6.57422 4.29102H6.57324C6.34684 4.33282 6.12298 4.221 6.0166 4.01758C5.91062 3.81416 5.94954 3.56519 6.11133 3.40332L9.02051 0.491211ZM10 1.11523C9.90683 1.11527 9.82827 1.16734 9.76074 1.23438V1.23535L7.86523 3.13184L7.74023 3.25684L7.91211 3.29883C9.48928 3.68962 10.5566 5.11866 10.5566 6.8252C10.5564 8.83093 9.03636 10.4766 7.04004 10.4766C5.34087 10.4762 3.90986 9.27756 3.51855 7.69531L3.47559 7.52344L3.35059 7.64844L1.24512 9.75488H1.24414C1.11424 9.88575 1.11564 10.1 1.24609 10.2314V10.2324L9.76172 18.7529C9.82802 18.8186 9.90595 18.871 9.99902 18.8711C10.0922 18.8711 10.1708 18.819 10.2383 18.752V18.751L18.7539 10.2305C18.868 10.1156 18.8826 9.9383 18.7969 9.80762L18.7539 9.75488L15.75 6.75098C15.5922 6.59291 15.5513 6.35183 15.6484 6.15137C15.7338 5.97546 15.9063 5.86279 16.0977 5.85547L16.1807 5.85938L16.2744 5.87012V5.87109C16.3229 5.87775 16.3846 5.88769 16.4482 5.8877C17.7084 5.8877 18.7334 4.86271 18.7334 3.60254C18.7332 2.34138 17.7084 1.31543 16.4482 1.31543C15.1888 1.31547 14.1643 2.34145 14.1641 3.60254L14.1797 3.76465L14.1924 3.87402C14.2037 3.98165 14.1816 4.09006 14.1289 4.18457C14.076 4.27929 13.9952 4.35553 13.8975 4.40234C13.7234 4.4855 13.5172 4.46494 13.3633 4.35352L13.3008 4.2998L10.2373 1.2334C10.1709 1.16771 10.0932 1.11524 10 1.11523Z" fill="white" stroke="white" stroke-width="0.2"/>
</svg>
