<svg width="18" height="15" viewBox="0 0 18 15" fill="none" xmlns="http://www.w3.org/2000/svg">
<path d="M9.23077 3.52941H1.84615C1.35652 3.52941 0.886947 3.71534 0.540726 4.04628C0.194505 4.37723 0 4.82609 0 5.29412V8.82353C0 9.29156 0.194505 9.74042 0.540726 10.0714C0.886947 10.4023 1.35652 10.5882 1.84615 10.5882H2.76923V14.1176C2.76923 14.3517 2.86648 14.5761 3.03959 14.7416C3.2127 14.907 3.44749 15 3.69231 15H5.53846C5.78328 15 6.01806 14.907 6.19118 14.7416C6.36429 14.5761 6.46154 14.3517 6.46154 14.1176V10.5882H9.23077L13.8462 14.1176V0L9.23077 3.52941ZM18 7.05882C18 8.56765 17.1138 9.93529 15.6923 10.5882V3.52941C17.1046 4.19118 18 5.55882 18 7.05882Z" fill="white"/>
</svg>
