<svg width="18" height="18" viewBox="0 0 18 18" fill="none" xmlns="http://www.w3.org/2000/svg">
<path d="M12.2727 5.72727H16.7727L12.2727 1.22727V5.72727ZM4.90909 0H13.0909L18 4.90909V13.0909C18 13.5249 17.8276 13.9411 17.5207 14.248C17.2138 14.5549 16.7976 14.7273 16.3636 14.7273H4.90909C4.4751 14.7273 4.05888 14.5549 3.75201 14.248C3.44513 13.9411 3.27273 13.5249 3.27273 13.0909V1.63636C3.27273 1.20237 3.44513 0.786157 3.75201 0.47928C4.05888 0.172402 4.4751 0 4.90909 0ZM1.63636 3.27273V16.3636H16.3636V18H1.63636C1.20237 18 0.786158 17.8276 0.47928 17.5207C0.172402 17.2138 0 16.7976 0 16.3636V3.27273H1.63636Z" fill="white"/>
</svg>
