<svg width="18" height="21" viewBox="0 0 18 21" fill="none" xmlns="http://www.w3.org/2000/svg">
<path d="M5.25 3.74951C5.25015 3.03994 5.45158 2.34496 5.8309 1.74531C6.21023 1.14565 6.75188 0.66592 7.39295 0.361833C8.03401 0.057746 8.74819 -0.0582185 9.45252 0.027408C10.1569 0.113035 10.8225 0.396738 11.372 0.845568C11.9215 1.2944 12.3325 1.88994 12.5571 2.56301C12.7817 3.23609 12.8108 3.95909 12.641 4.64803C12.4711 5.33697 12.1093 5.96359 11.5976 6.45511C11.0859 6.94662 10.4452 7.28286 9.75 7.42478V8.99989H12.951C14.082 8.99989 15 9.91796 15 11.0505V13.5752C15.9105 13.7611 16.7196 14.2785 17.2704 15.027C17.8212 15.7756 18.0744 16.702 17.981 17.6267C17.8876 18.5513 17.4542 19.4084 16.7649 20.0316C16.0755 20.6549 15.1793 21 14.25 21C13.3207 21 12.4245 20.6549 11.7351 20.0316C11.0458 19.4084 10.6124 18.5513 10.519 17.6267C10.4256 16.702 10.6788 15.7756 11.2296 15.027C11.7804 14.2785 12.5895 13.7611 13.5 13.5752V11.0505C13.5 10.9048 13.4422 10.765 13.3393 10.6618C13.2364 10.5586 13.0967 10.5004 12.951 10.5H5.0505C4.97821 10.5 4.90663 10.5142 4.83984 10.5419C4.77305 10.5696 4.71236 10.6101 4.66124 10.6613C4.61012 10.7124 4.56957 10.7731 4.54191 10.8399C4.51424 10.9067 4.5 10.9782 4.5 11.0505V13.5752C5.41054 13.7611 6.21962 14.2785 6.7704 15.027C7.32118 15.7756 7.57442 16.702 7.48101 17.6267C7.38761 18.5513 6.95422 19.4084 6.26487 20.0316C5.57552 20.6549 4.67931 21 3.75001 21C2.8207 21 1.92449 20.6549 1.23514 20.0316C0.545791 19.4084 0.112402 18.5513 0.0189979 17.6267C-0.0744058 16.702 0.17883 15.7756 0.72961 15.027C1.28039 14.2785 2.08947 13.7611 3.00001 13.5752V11.0505C3.00001 9.91796 3.91801 8.99989 5.0505 8.99989H8.25V7.42478C7.40298 7.25187 6.64171 6.79159 6.09502 6.12186C5.54834 5.45212 5.24983 4.61406 5.25 3.74951Z" fill="white"/>
</svg>
