<svg width="18" height="14" viewBox="0 0 18 14" fill="none" xmlns="http://www.w3.org/2000/svg">
<path d="M8.04102 0C8.3096 5.30776e-06 8.5735 0.0677295 8.80469 0.195312C9.03592 0.322964 9.22704 0.505846 9.35645 0.725586L10.5771 2.7998H16.5C16.8978 2.7998 17.2793 2.94747 17.5605 3.20996C17.8419 3.47251 18 3.82889 18 4.2002V12.5996C18 12.9709 17.8419 13.3273 17.5605 13.5898C17.2792 13.8524 16.8978 14 16.5 14H1.5C1.10218 14 0.720757 13.8524 0.439453 13.5898C0.158149 13.3273 0 12.9709 0 12.5996V1.40039C0 1.02909 0.158149 0.672707 0.439453 0.410156C0.720757 0.14761 1.10218 0 1.5 0H8.04102ZM10 10C9.44771 10 9 10.4477 9 11C9 11.5523 9.44771 12 10 12H15C15.5523 12 16 11.5523 16 11C16 10.4477 15.5523 10 15 10H10ZM1.5 0.933594C1.36739 0.933594 1.24025 0.982796 1.14648 1.07031C1.0528 1.15782 1 1.27668 1 1.40039V2.7998H9.43555L8.47949 1.1748C8.43635 1.1017 8.37287 1.04053 8.2959 0.998047C8.21888 0.955569 8.13048 0.933608 8.04102 0.933594H1.5Z" fill="white"/>
</svg>
