<svg width="24" height="22" viewBox="0 0 24 22" fill="none" xmlns="http://www.w3.org/2000/svg">
<g clip-path="url(#clip0_3802_381)">
<path d="M16.6546 8.2207H22.7414C23.3165 8.2207 23.7826 8.68694 23.7826 9.26197V14.8063C23.7826 16.9197 22.0693 18.6331 19.9558 18.6331H19.9377C17.8242 18.6334 16.1106 16.9204 16.1104 14.8068V8.765C16.1103 8.69352 16.1244 8.62273 16.1517 8.55668C16.179 8.49064 16.2191 8.43062 16.2697 8.38007C16.3202 8.32953 16.3802 8.28943 16.4462 8.26209C16.5123 8.23474 16.5831 8.22068 16.6546 8.2207Z" fill="#5059C9"/>
<path d="M20.7689 7.12364C22.1309 7.12364 23.235 6.01952 23.235 4.65752C23.235 3.29552 22.1309 2.19141 20.7689 2.19141C19.4069 2.19141 18.3027 3.29552 18.3027 4.65752C18.3027 6.01952 19.4069 7.12364 20.7689 7.12364Z" fill="#5059C9"/>
<path d="M13.0963 7.12432C15.0637 7.12432 16.6585 5.52949 16.6585 3.56216C16.6585 1.59483 15.0637 0 13.0963 0C11.129 0 9.53418 1.59483 9.53418 3.56216C9.53418 5.52949 11.129 7.12432 13.0963 7.12432Z" fill="#7B83EB"/>
<path d="M17.8456 8.2207H7.79824C7.23002 8.23479 6.78054 8.70636 6.7937 9.27459V15.5982C6.71435 19.0081 9.41207 21.8378 12.8219 21.9213C16.2317 21.8378 18.9294 19.0081 18.8502 15.5982V9.27459C18.8633 8.70636 18.4138 8.23479 17.8456 8.2207Z" fill="#7B83EB"/>
<path opacity="0.1" d="M13.3706 8.2207V17.0822C13.3693 17.281 13.3093 17.4749 13.1981 17.6397C13.087 17.8045 12.9296 17.9327 12.7458 18.0084C12.6262 18.059 12.4976 18.0851 12.3677 18.0851H7.27648C7.20523 17.9042 7.13951 17.7233 7.08465 17.5371C6.89281 16.9083 6.79494 16.2545 6.79423 15.5971V9.27293C6.78106 8.70562 7.22981 8.23479 7.79711 8.2208L13.3706 8.2207Z" fill="black"/>
<path opacity="0.2" d="M12.8223 8.2207V17.6303C12.8223 17.7601 12.7963 17.8887 12.7456 18.0084C12.67 18.1922 12.5417 18.3495 12.3769 18.4607C12.2121 18.5718 12.0182 18.6318 11.8194 18.6331H7.53404C7.44088 18.4523 7.35316 18.2714 7.27648 18.0851C7.20281 17.906 7.13877 17.7231 7.08465 17.5371C6.89281 16.9083 6.79494 16.2545 6.79423 15.5971V9.27293C6.78106 8.70562 7.22981 8.23479 7.79711 8.2208L12.8223 8.2207Z" fill="black"/>
<path opacity="0.2" d="M12.8224 8.2207V16.5342C12.8183 17.0863 12.3717 17.533 11.8195 17.5371H7.08465C6.89281 16.9083 6.79494 16.2545 6.79423 15.5971V9.27293C6.78106 8.70562 7.22981 8.23479 7.79711 8.2208L12.8224 8.2207Z" fill="black"/>
<path opacity="0.2" d="M12.2744 8.2207V16.5342C12.2702 17.0863 11.8237 17.533 11.2716 17.5371H7.08465C6.89281 16.9083 6.79494 16.2545 6.79423 15.5971V9.27293C6.78106 8.70562 7.22981 8.23479 7.79711 8.2208L12.2744 8.2207Z" fill="black"/>
<path opacity="0.1" d="M13.3703 5.38765V7.11387C13.2772 7.11939 13.1894 7.12492 13.0963 7.12492C13.0031 7.12492 12.9154 7.11939 12.8223 7.11387C12.6373 7.1016 12.4539 7.07226 12.2743 7.02624C11.7272 6.89667 11.2185 6.63944 10.7899 6.2756C10.3613 5.91175 10.0249 5.45162 9.80817 4.93283C9.73251 4.7561 9.67379 4.57259 9.63281 4.38477H12.3674C12.9204 4.38688 13.3682 4.83462 13.3703 5.38765Z" fill="black"/>
<path opacity="0.2" d="M12.8226 5.93444V7.11268C12.6376 7.1004 12.4542 7.07107 12.2746 7.02505C11.7275 6.89546 11.2189 6.63823 10.7903 6.27439C10.3617 5.91054 10.0253 5.45042 9.80859 4.93164H11.8197C12.3727 4.93367 12.8205 5.38149 12.8226 5.93444Z" fill="black"/>
<path opacity="0.2" d="M12.8226 5.93444V7.11268C12.6376 7.1004 12.4542 7.07107 12.2746 7.02505C11.7275 6.89546 11.2189 6.63823 10.7903 6.27439C10.3617 5.91054 10.0253 5.45042 9.80859 4.93164H11.8197C12.3727 4.93367 12.8205 5.38149 12.8226 5.93444Z" fill="black"/>
<path opacity="0.2" d="M12.2747 5.93453V7.02514C11.7276 6.89556 11.2189 6.63832 10.7903 6.27446C10.3617 5.9106 10.0253 5.45045 9.80859 4.93164H11.2718C11.8249 4.93376 12.2726 5.38158 12.2747 5.93453Z" fill="black"/>
<path d="M1.22232 4.93173H11.2696C11.8245 4.93173 12.2742 5.38149 12.2742 5.93628V15.9836C12.2742 16.5384 11.8245 16.9882 11.2697 16.9882H1.22232C0.667531 16.9882 0.217773 16.5384 0.217773 15.9836V5.93637C0.217773 5.3814 0.667531 4.93173 1.22232 4.93173Z" fill="url(#paint0_linear_3802_381)"/>
<path d="M8.88981 8.75628H6.88128V14.2255H5.60169V8.75628H3.60254V7.69531H8.88981V8.75628Z" fill="white"/>
</g>
<defs>
<linearGradient id="paint0_linear_3802_381" x1="209.663" y1="-73.5565" x2="996.428" y2="1289.07" gradientUnits="userSpaceOnUse">
<stop stop-color="#5A62C3"/>
<stop offset="0.5" stop-color="#4D55BD"/>
<stop offset="1" stop-color="#3940AB"/>
</linearGradient>
<clipPath id="clip0_3802_381">
<rect width="23.5649" height="22" fill="white" transform="translate(0.217773)"/>
</clipPath>
</defs>
</svg>
