<svg width="20" height="20" viewBox="0 0 20 20" fill="none" xmlns="http://www.w3.org/2000/svg">
<path d="M4.97384 14.4535C4.97384 14.4535 3.60769 14.4614 3.38307 14.424C3.13846 14.3834 3.01384 14.0419 3.10615 13.7492C3.43384 12.6905 4.10154 11.8791 4.97384 11.44C4.58994 11.1142 4.31128 10.6704 4.17641 10.1699C4.04154 9.66943 4.05711 9.13702 4.22098 8.64631C4.38485 8.1556 4.68892 7.73083 5.09113 7.43075C5.49335 7.13066 5.97384 6.97009 6.46615 6.97124C7.78 6.97124 8.84615 8.09981 8.84615 9.48531C8.84615 10.2529 8.51846 10.9407 8.00461 11.4042C8.90307 11.8286 9.58615 12.6499 9.95384 13.7085C10.0554 14.0012 9.98923 14.2923 9.75846 14.424C9.69424 14.4485 9.6259 14.4586 9.5578 14.4535C9.4897 14.4485 9.37109 14.4535 9.37109 14.4535H8.5H7.5H4.97384ZM18.68 14.9769V12.5995C18.68 12.2352 18.9969 11.9457 19.3646 11.9457C19.4473 11.9429 19.5298 11.9577 19.607 11.9893C19.6842 12.0209 19.7545 12.0687 19.8138 12.1297C19.8732 12.1908 19.9202 12.2638 19.9522 12.3445C19.9842 12.4252 20.0004 12.5119 20 12.5995V15.5607C20 16.2077 19.7569 16.8281 19.3241 17.2856C18.8913 17.743 18.3043 18 17.6923 18H2.86308C1.28461 18 0 16.7641 0 15.2355V4.44252C0 3.79559 0.243131 3.17515 0.675907 2.7177C1.10868 2.26025 1.69565 2.00325 2.30769 2.00325L17.1354 2C18.7154 2 20 3.2359 20 4.76613L19.9969 9.51459C19.9861 9.86747 19.72 10.1212 19.3646 10.1212C19.0061 10.1212 18.6923 9.86747 18.68 9.51133L18.6754 4.76613C18.6754 3.9628 17.9831 3.40177 17.1369 3.40177H2.86154C2.45351 3.40177 2.0622 3.5731 1.77368 3.87807C1.48516 4.18303 1.32308 4.59666 1.32308 5.02795V15.2371C1.32308 16.0388 2.01538 16.6047 2.86154 16.6047H17.14C17.548 16.6047 17.9393 16.4334 18.2278 16.1284C18.5164 15.8235 18.6785 15.4098 18.6785 14.9786L18.68 14.9769ZM15.7292 14.3671H12.2308C11.82 14.3671 11.4769 14.0907 11.4769 13.7329C11.4769 13.3751 11.82 13.1003 12.2308 13.1003H15.7261C16.1385 13.1003 16.48 13.3751 16.48 13.7345C16.48 14.0923 16.1369 14.3671 15.7261 14.3671H15.7292ZM15.7292 8.23641H12.2308C11.82 8.23641 11.4769 7.96158 11.4769 7.60382C11.4769 7.24606 11.82 6.97124 12.2308 6.97124H15.7261C16.1385 6.97124 16.48 7.24606 16.48 7.60545C16.48 7.96321 16.1369 8.23641 15.7261 8.23641H15.7292ZM15.7292 11.0497H12.2308C11.82 11.0497 11.4769 10.7765 11.4769 10.4171C11.4769 10.0594 11.82 9.78453 12.2308 9.78453H15.7261C16.1369 9.78453 16.48 10.0594 16.48 10.4187C16.48 10.7765 16.1385 11.0497 15.7261 11.0497H15.7292Z" fill="white"/>
</svg>
