<svg width="20" height="20" viewBox="0 0 20 20" fill="none" xmlns="http://www.w3.org/2000/svg">
<path d="M12.6406 1.31055V4.16425H15.463L12.6406 1.31055Z" fill="white"/>
<path d="M15.8047 5.21875H12.1133C11.822 5.21875 11.5859 4.98264 11.5859 4.69141V1H4.73047C4.43938 1 4.20312 1.23625 4.20312 1.52734V8.41797H15.8047V5.21875ZM6.83984 3.98828H10.0391C10.3303 3.98828 10.5664 4.22439 10.5664 4.51562C10.5664 4.80686 10.3303 5.04297 10.0391 5.04297H6.83984C6.54861 5.04297 6.3125 4.80686 6.3125 4.51562C6.3125 4.22439 6.54861 3.98828 6.83984 3.98828ZM13.168 7.1875H6.83984C6.54861 7.1875 6.3125 6.95139 6.3125 6.66016C6.3125 6.36892 6.54861 6.13281 6.83984 6.13281H13.168C13.4592 6.13281 13.6953 6.36892 13.6953 6.66016C13.6953 6.95139 13.4592 7.1875 13.168 7.1875Z" fill="white"/>
<path d="M3.14453 5.25391H2.58203C2.29094 5.25391 2.05469 5.49016 2.05469 5.78125V8.48828H3.14453V5.25391Z" fill="white"/>
<path d="M17.9453 9.54297V18.4727C17.9453 18.7639 17.7092 19 17.418 19H2.58203C2.2908 19 2.05469 18.7639 2.05469 18.4727V9.54297H17.9453ZM10.2129 11.1514C10.0811 10.8721 9.70019 10.8721 9.56836 11.1514L8.68164 13.0303L6.69824 13.332C6.40384 13.3772 6.28686 13.7554 6.5 13.9727L7.93457 15.4355L7.5957 17.501C7.54531 17.808 7.8536 18.0424 8.11719 17.8975L9.89062 16.9219L11.6641 17.8975C11.9276 18.0424 12.2359 17.808 12.1855 17.501L11.8467 15.4355L13.2822 13.9727C13.495 13.7553 13.3773 13.3771 13.083 13.332L11.0996 13.0303L10.2129 11.1514Z" fill="white"/>
</svg>
