<svg width="20" height="20" viewBox="0 0 20 20" fill="none" xmlns="http://www.w3.org/2000/svg">
<path d="M10 1C12.3869 1 14.6761 1.94821 16.364 3.63604C18.0518 5.32387 19 7.61305 19 10C19 12.3869 18.0518 14.6761 16.364 16.364C14.6761 18.0518 12.3869 19 10 19C7.61305 19 5.32387 18.0518 3.63604 16.364C1.94821 14.6761 1 12.3869 1 10C1 7.61305 1.94821 5.32387 3.63604 3.63604C5.32387 1.94821 7.61305 1 10 1ZM11.3499 6.52561C12.0184 6.52561 12.561 6.0615 12.561 5.37369C12.561 4.68588 12.0171 4.22177 11.3499 4.22177C10.6814 4.22177 10.1414 4.68588 10.1414 5.37369C10.1414 6.0615 10.6814 6.52561 11.3499 6.52561ZM11.5852 13.7598C11.5852 13.6222 11.6327 13.2648 11.6057 13.0617L10.549 14.2779C10.3304 14.508 10.0566 14.6675 9.92801 14.625C9.86968 14.6036 9.82092 14.562 9.79052 14.5078C9.76012 14.4536 9.75006 14.3903 9.76216 14.3293L11.5235 8.76516C11.6675 8.05935 11.2715 7.41526 10.432 7.33298C9.54618 7.33298 8.24255 8.23163 7.44933 9.37197C7.44933 9.50825 7.42361 9.84765 7.45061 10.0508L8.50611 8.8333C8.72466 8.60574 8.97922 8.44504 9.10778 8.48875C9.17112 8.51149 9.22302 8.55815 9.25235 8.61872C9.28167 8.67929 9.28608 8.74894 9.26462 8.81273L7.51875 14.3499C7.31691 14.9979 7.69874 15.633 8.62438 15.7769C9.98714 15.7769 10.7919 14.9002 11.5865 13.7598H11.5852Z" fill="white"/>
</svg>
