<svg width="20" height="20" viewBox="0 0 20 20" fill="none" xmlns="http://www.w3.org/2000/svg">
<path d="M12.6406 1.31055V4.16425H15.463L12.6406 1.31055Z" fill="white"/>
<path d="M15.8047 5.21875H12.1133C11.822 5.21875 11.5859 4.98264 11.5859 4.69141V1H4.73047C4.43938 1 4.20312 1.23625 4.20312 1.52734V8.41797H15.8047V5.21875ZM6.83984 3.98828H10.0391C10.3303 3.98828 10.5664 4.22439 10.5664 4.51562C10.5664 4.80686 10.3303 5.04297 10.0391 5.04297H6.83984C6.54861 5.04297 6.3125 4.80686 6.3125 4.51562C6.3125 4.22439 6.54861 3.98828 6.83984 3.98828ZM13.168 7.1875H6.83984C6.54861 7.1875 6.3125 6.95139 6.3125 6.66016C6.3125 6.36892 6.54861 6.13281 6.83984 6.13281H13.168C13.4592 6.13281 13.6953 6.36892 13.6953 6.66016C13.6953 6.95139 13.4592 7.1875 13.168 7.1875Z" fill="white"/>
<path d="M3.14453 5.25391H2.58203C2.29094 5.25391 2.05469 5.49016 2.05469 5.78125V8.48828H3.14453V5.25391Z" fill="white"/>
<path d="M2.05469 9.54297V18.4727C2.05469 18.7639 2.2908 19 2.58203 19H17.418C17.7092 19 17.9453 18.7639 17.9453 18.4727V9.54297H2.05469ZM13.1641 16.9961C13.1641 17.2873 12.928 17.5234 12.6367 17.5234H7.36328C7.07205 17.5234 6.83594 17.2873 6.83594 16.9961V15.9766C6.83594 15.1042 7.54564 14.3945 8.41797 14.3945H9.64193C8.79505 14.2273 8.1543 13.4792 8.1543 12.584C8.1543 11.5663 8.9823 10.7383 10 10.7383C11.0177 10.7383 11.8457 11.5663 11.8457 12.584C11.8457 13.4792 11.2049 14.2273 10.3581 14.3945H11.582C12.4544 14.3945 13.1641 15.1042 13.1641 15.9766V16.9961Z" fill="white"/>
</svg>
